<?xml version="1.0" encoding="UTF-8"?>
<svg version="1.1" xmlns="http://www.w3.org/2000/svg" width="360" height="360">
<path d="M0 0 C118.8 0 237.6 0 360 0 C360 118.8 360 237.6 360 360 C241.2 360 122.4 360 0 360 C0 241.2 0 122.4 0 0 Z " fill="#FED944" transform="translate(0,0)"/>
<path d="M0 0 C118.8 0 237.6 0 360 0 C360 66.66 360 133.32 360 202 C359.67 202 359.34 202 359 202 C358.90203125 201.15179688 358.8040625 200.30359375 358.703125 199.4296875 C356.0901499 178.93134834 348.96530332 160.53344119 335 145 C334.21109375 144.00033203 334.21109375 144.00033203 333.40625 142.98046875 C320.7300134 127.22838062 301.18851907 117.9371541 282 113 C281.10667969 112.75507812 280.21335937 112.51015625 279.29296875 112.2578125 C249.47764358 105.40263538 223.27837095 116.52813263 198 131 C197.731875 130.04222656 197.46375 129.08445313 197.1875 128.09765625 C192.64727014 112.44141705 186.52127235 98.57329355 176 86 C175.37609375 85.21367188 174.7521875 84.42734375 174.109375 83.6171875 C158.97122383 65.36235815 135.12756173 54.01407825 111.8125 51.28515625 C90.83139857 49.71587305 72.84148642 52.47398274 54 62 C52.94167969 62.53496094 51.88335937 63.06992187 50.79296875 63.62109375 C27.15462556 76.54008341 12.33660776 97.79415691 4 123 C2.76405369 127.28591144 1.7919874 131.55213441 1.375 136 C1.30023438 136.763125 1.22546875 137.52625 1.1484375 138.3125 C1.09945312 138.869375 1.05046875 139.42625 1 140 C0.67 140 0.34 140 0 140 C0 93.8 0 47.6 0 0 Z " fill="#FDFCFC" transform="translate(0,0)"/>
<path d="M0 0 C0.33 0 0.66 0 1 0 C1.08636719 0.825 1.17273438 1.65 1.26171875 2.5 C4.41240995 28.39925978 16.35821337 52.22125448 36.52734375 69.1171875 C49.52459842 78.59654666 62.30588514 85.34492858 78 89 C79.50240234 89.36738281 79.50240234 89.36738281 81.03515625 89.7421875 C107.23774395 95.122747 132.36188957 88.06388982 155 75 C156.29008353 74.26252897 157.58045114 73.52555467 158.87109375 72.7890625 C160.41990234 71.90347656 160.41990234 71.90347656 162 71 C162.4021875 72.56234375 162.4021875 72.56234375 162.8125 74.15625 C168.91194003 96.87739949 180.99387779 118.27914074 200.625 132 C201.2319873 132.42442383 201.83897461 132.84884766 202.46435547 133.28613281 C225.84100936 149.35644359 252.69821223 154.42874112 280.59960938 149.48046875 C297.08035438 146.15191793 312.34500815 137.90646102 325 127 C325.67417969 126.47019531 326.34835937 125.94039063 327.04296875 125.39453125 C346.18463364 109.92073029 356.26428507 84.84563461 359 61 C359.33 61 359.66 61 360 61 C360 107.53 360 154.06 360 202 C241.2 202 122.4 202 0 202 C0 135.34 0 68.68 0 0 Z " fill="#F9F9F9" transform="translate(0,158)"/>
<path d="M0 0 C24.95011282 0.28596118 49.63471527 13.05439533 67.0625 30.3125 C74.64989392 38.08701546 80.02123537 46.79271657 85.0625 56.3125 C85.47242188 57.02921875 85.88234375 57.7459375 86.3046875 58.484375 C97.98315206 79.66856653 97.16601588 106.46428795 91.03125 129.12109375 C86.83805396 142.73481467 80.46885733 154.58888159 71.0625 165.3125 C70.46050781 166.05757812 69.85851562 166.80265625 69.23828125 167.5703125 C53.05215703 187.04795465 28.72403442 197.4418452 4.0625 200.3125 C1.0925 200.3125 -1.8775 200.3125 -4.9375 200.3125 C-4.9375 186.1225 -4.9375 171.9325 -4.9375 157.3125 C4.9625 155.3325 4.9625 155.3325 15.0625 153.3125 C27.10779008 149.18268626 38.23192676 143.17045907 44.0625 131.3125 C44.0625 130.6525 44.0625 129.9925 44.0625 129.3125 C42.28538108 127.98398873 42.28538108 127.98398873 39.9765625 126.7109375 C39.12835938 126.22109375 38.28015625 125.73125 37.40625 125.2265625 C36.06046875 124.46472656 36.06046875 124.46472656 34.6875 123.6875 C33.79804688 123.171875 32.90859375 122.65625 31.9921875 122.125 C27.77901756 119.38847364 27.77901756 119.38847364 23.0625 118.3125 C21.68853709 119.97262191 21.68853709 119.97262191 20.3125 122.0625 C16.20837773 127.70068739 11.74127779 130.41118328 5.0625 132.3125 C-5.1924717 133.34641274 -13.11484755 132.19319067 -21.3125 125.875 C-23.9375 123.3125 -23.9375 123.3125 -26.9375 118.3125 C-19.3475 117.9825 -11.7575 117.6525 -3.9375 117.3125 C-1.4625 111.3725 -1.4625 111.3725 1.0625 105.3125 C-9.8275 104.9825 -20.7175 104.6525 -31.9375 104.3125 C-31.9375 101.6725 -31.9375 99.0325 -31.9375 96.3125 C-21.0475 96.3125 -10.1575 96.3125 1.0625 96.3125 C2.0525 93.3425 3.0425 90.3725 4.0625 87.3125 C4.7225 85.6625 5.3825 84.0125 6.0625 82.3125 C-5.4875 82.3125 -17.0375 82.3125 -28.9375 82.3125 C-25.67845557 74.16488892 -20.76642688 69.15020926 -12.9375 65.3125 C-11.9475 64.8175 -11.9475 64.8175 -10.9375 64.3125 C-1.22727923 63.56719797 8.01199118 63.01928508 16.0625 69.3125 C18.67738161 71.79000559 21.06095551 74.31018327 23.0625 77.3125 C23.0625 77.9725 23.0625 78.6325 23.0625 79.3125 C23.53147705 78.98975098 24.0004541 78.66700195 24.48364258 78.33447266 C26.61394105 76.86859116 28.74446807 75.40304217 30.875 73.9375 C31.61298828 73.42960937 32.35097656 72.92171875 33.11132812 72.3984375 C33.82353516 71.90859375 34.53574219 71.41875 35.26953125 70.9140625 C35.9241333 70.46369629 36.57873535 70.01333008 37.25317383 69.54931641 C38.8484453 68.45882319 40.45466824 67.38438784 42.0625 66.3125 C41.10717409 59.49548298 36.88808872 55.6823486 31.76171875 51.3828125 C21.68381223 43.89269378 11.71235773 41.8465416 -0.5078125 40.70703125 C-3.9375 40.3125 -3.9375 40.3125 -4.9375 39.3125 C-5.03853255 36.51256403 -5.07720088 33.73781356 -5.0703125 30.9375 C-5.07174759 29.67800537 -5.07174759 29.67800537 -5.07321167 28.39306641 C-5.07389348 26.61425705 -5.07203917 24.83544523 -5.06787109 23.05664062 C-5.06252283 20.32416224 -5.06781605 17.59184824 -5.07421875 14.859375 C-5.07355797 13.1354163 -5.07227681 11.41145771 -5.0703125 9.6875 C-5.07233673 8.86459473 -5.07436096 8.04168945 -5.07644653 7.19384766 C-5.04817767 0.40064902 -5.04817767 0.40064902 0 0 Z " fill="#FE9810" transform="translate(264.9375,109.6875)"/>
<path d="M0 0 C4.95 0 9.9 0 15 0 C15 4.95 15 9.9 15 15 C19.95 15 24.9 15 30 15 C30 10.05 30 5.1 30 0 C34.95 0 39.9 0 45 0 C45 4.95 45 9.9 45 15 C49.95 15 54.9 15 60 15 C60 10.05 60 5.1 60 0 C64.95 0 69.9 0 75 0 C75 4.95 75 9.9 75 15 C79.95 15 84.9 15 90 15 C90 19.95 90 24.9 90 30 C94.95 30 99.9 30 105 30 C105 34.95 105 39.9 105 45 C109.95 45 114.9 45 120 45 C120 49.95 120 54.9 120 60 C124.95 60 129.9 60 135 60 C135 64.95 135 69.9 135 75 C139.95 75 144.9 75 150 75 C150 111.96 150 148.92 150 187 C149.67 187 149.34 187 149 187 C148.90203125 186.15179688 148.8040625 185.30359375 148.703125 184.4296875 C146.0901499 163.93134834 138.96530332 145.53344119 125 130 C124.21109375 129.00033203 124.21109375 129.00033203 123.40625 127.98046875 C110.7300134 112.22838062 91.18851907 102.9371541 72 98 C71.10667969 97.75507812 70.21335937 97.51015625 69.29296875 97.2578125 C42.99985669 91.21246705 17.67107717 99.08530363 -5 112 C-5.77988281 112.43957031 -6.55976563 112.87914063 -7.36328125 113.33203125 C-8.91436645 114.21170482 -10.45843778 115.10374289 -12 116 C-12.99 112.04 -13.98 108.08 -15 104 C-10.05 104.33 -5.1 104.66 0 105 C0 100.05 0 95.1 0 90 C4.95 90 9.9 90 15 90 C15 85.05 15 80.1 15 75 C19.95 75 24.9 75 30 75 C30.33 72.69 30.66 70.38 31 68 C30.05125 68.04125 29.1025 68.0825 28.125 68.125 C25 68 25 68 23 66 C26.96 61.545 26.96 61.545 31 57 C11.14323799 46.35867674 -7.67806877 42.20075378 -30 40 C-30 30.1 -30 20.2 -30 10 C-13.89527027 10 -13.89527027 10 -7.125 11 C-6.07505859 11.14308594 -6.07505859 11.14308594 -5.00390625 11.2890625 C-3.33477506 11.51771061 -1.6671753 11.75750177 0 12 C0 8.04 0 4.08 0 0 Z " fill="#EEEEEE" transform="translate(210,15)"/>
<path d="M0 0 C24.46979686 0.8089189 46.17227634 7.90137635 65 24 C65.75023437 24.60457031 66.50046875 25.20914063 67.2734375 25.83203125 C82.67102637 38.66335531 95.37728088 59.68496118 98.40234375 79.65625 C97.81783333 83.06116509 96.14664582 84.09760731 93.5 86.25 C72.6469197 104.07364833 62.64377993 128.3772509 60.23828125 155.2265625 C59.69003163 163.48685675 60.36362666 171.76154516 61 180 C42.85396281 191.70137259 23.04148441 200.72267162 1 200 C0.13036913 197.00293305 -0.11763099 194.35043474 -0.09765625 191.234375 C-0.09443359 190.34492188 -0.09121094 189.45546875 -0.08789062 188.5390625 C-0.07951172 187.61867187 -0.07113281 186.69828125 -0.0625 185.75 C-0.05798828 184.81414062 -0.05347656 183.87828125 -0.04882812 182.9140625 C-0.03706918 180.60930959 -0.02063426 178.30468773 0 176 C2.31 176 4.62 176 7 176 C7 169.73 7 163.46 7 157 C9.2275 156.62875 11.455 156.2575 13.75 155.875 C23.73288225 153.97458893 33.18847165 150.5357237 39.59765625 142.24609375 C44.94061393 133.68843173 46.13217883 124.9585526 45 115 C43.09491488 107.14419956 39.31251578 100.65533242 32.3671875 96.37890625 C23.6471464 91.81397612 14.70279235 88.61713206 5 87 C5 79.74 5 72.48 5 65 C11.75071798 65 11.75071798 65 14.9453125 66.4609375 C15.97205078 66.92113281 15.97205078 66.92113281 17.01953125 67.390625 C17.71433594 67.71546875 18.40914062 68.0403125 19.125 68.375 C20.17880859 68.85066406 20.17880859 68.85066406 21.25390625 69.3359375 C24.5373766 70.82560269 27.7801189 72.37717992 31 74 C32.64954167 70.89779023 34.2939881 67.79290789 35.9375 64.6875 C36.40607422 63.80642578 36.87464844 62.92535156 37.35742188 62.01757812 C37.80537109 61.17001953 38.25332031 60.32246094 38.71484375 59.44921875 C39.12855225 58.66893311 39.54226074 57.88864746 39.96850586 57.0847168 C41.11114267 54.89537922 41.11114267 54.89537922 42 52 C41.14277344 51.73058594 40.28554687 51.46117187 39.40234375 51.18359375 C36.00188954 50.00065732 32.82842642 48.57428926 29.5625 47.0625 C22.10354842 43.80667161 15.02552255 42.36282458 7 41 C7 35.39 7 29.78 7 24 C4.69 24 2.38 24 0 24 C0 16.08 0 8.16 0 0 Z " fill="#FE9810" transform="translate(100,50)"/>
<path d="M0 0 C3.28908338 3.28908338 5.90312647 6.06033373 8.625 9.6875 C16.56770236 19.67897418 25.89887031 26.80898536 37 33 C37.99 33.556875 38.98 34.11375 40 34.6875 C47.38936206 38.61801173 54.87064111 41.0653242 63 43 C63.94101563 43.226875 64.88203125 43.45375 65.8515625 43.6875 C92.19639958 49.03067823 117.21732882 42.14731222 140 29 C141.29008353 28.26252897 142.58045114 27.52555467 143.87109375 26.7890625 C145.41990234 25.90347656 145.41990234 25.90347656 147 25 C147.268125 26.0415625 147.53625 27.083125 147.8125 28.15625 C153.38610052 48.91858388 163.49590769 66.03457328 179 81 C179.66 81.66 180.32 82.32 181 83 C180.96631321 87.36805319 180.42669049 91.64775705 180 96 C175.05 96 170.1 96 165 96 C165 91.05 165 86.1 165 81 C160.05 81 155.1 81 150 81 C150 85.95 150 90.9 150 96 C145.05 96 140.1 96 135 96 C135 91.05 135 86.1 135 81 C130.05 81 125.1 81 120 81 C120 76.05 120 71.1 120 66 C115.05 66 110.1 66 105 66 C104.67 68.31 104.34 70.62 104 73 C106.64 73.33 109.28 73.66 112 74 C111.04367001 75.29315061 110.08486149 76.58446853 109.125 77.875 C108.59132813 78.59429687 108.05765625 79.31359375 107.5078125 80.0546875 C106 82 106 82 104 84 C112.60492564 90.09695736 122.01829436 93.00057121 132 96 C133.01964844 96.32097656 134.03929687 96.64195312 135.08984375 96.97265625 C144.81546276 99.74941117 154.96625491 100.16385458 165 101 C165 110.9 165 120.8 165 131 C135.56484107 131 109.56781193 123.43713836 84 109 C84 108.34 84 107.68 84 107 C83.319375 107.70125 82.63875 108.4025 81.9375 109.125 C78.79219487 112.27934337 75.4111614 115.13934304 72 118 C71.505 114.535 71.505 114.535 71 111 C67.37 111 63.74 111 60 111 C60 106.05 60 101.1 60 96 C55.05 96 50.1 96 45 96 C45 91.05 45 86.1 45 81 C40.05 81 35.1 81 30 81 C30 76.05 30 71.1 30 66 C34.95 66 39.9 66 45 66 C45 61.05 45 56.1 45 51 C40.05 51 35.1 51 30 51 C30 46.05 30 41.1 30 36 C25.05 36 20.1 36 15 36 C15 31.05 15 26.1 15 21 C10.05 21 5.1 21 0 21 C0 14.07 0 7.14 0 0 Z " fill="#EFEEEE" transform="translate(15,204)"/>
<path d="M0 0 C3.63 0 7.26 0 11 0 C11 5.28 11 10.56 11 16 C13.31 16 15.62 16 18 16 C20.64346764 16.62037766 23.11994061 17.28499989 25.6875 18.125 C26.37650391 18.34438232 27.06550781 18.56376465 27.77539062 18.78979492 C34.18509416 20.91030392 40.08473299 23.73988125 46 27 C45.42770367 32.19228855 42.9017839 36.3103703 40.4375 40.8125 C39.80038086 41.99489258 39.80038086 41.99489258 39.15039062 43.20117188 C38.10603446 45.1373378 37.0557923 47.07005367 36 49 C32.21707835 49 30.03228183 47.75456957 26.625 46.125 C20.55939641 43.23860932 15.67855001 41.11309167 9 40 C9 47.26 9 54.52 9 62 C12.3 62.33 15.6 62.66 19 63 C30.28692964 66.40381866 41.22880808 71.335648 47.125 82.04296875 C51.55882921 91.48025106 51.32391746 101.18192653 47.9375 110.9375 C43.39578349 121.33298445 36.34392967 125.78430991 26 130 C20.76578655 131.66760764 16.56277472 132 11 132 C11 137.94 11 143.88 11 150 C7.37 150 3.74 150 0 150 C0 144.06 0 138.12 0 132 C-2.97 131.6596875 -2.97 131.6596875 -6 131.3125 C-18.91751536 129.44663667 -30.57602593 125.29616753 -42 119 C-40.39323547 113.54406329 -37.94969106 108.6697853 -35.375 103.625 C-34.95476563 102.79355469 -34.53453125 101.96210938 -34.1015625 101.10546875 C-33.07133925 99.06843641 -32.03741179 97.03337811 -31 95 C-28.05108663 96.04079295 -25.72088444 97.18973799 -23.12109375 98.95703125 C-19.83390267 101.10872203 -16.76441472 102.39080722 -13.0625 103.6875 C-11.31646484 104.31205078 -11.31646484 104.31205078 -9.53515625 104.94921875 C-5.47882744 106.24885129 -5.47882744 106.24885129 1 107 C1 100.07 1 93.14 1 86 C-2.3 85.34 -5.6 84.68 -9 84 C-20.05223421 80.11862836 -29.71799151 75.93989025 -35 65 C-38.34661917 56.4228257 -38.04583118 46.94639177 -35.0390625 38.27734375 C-30.67125804 28.70429864 -22.5999934 21.94624234 -13 18 C-8.1729237 16.33549093 -5.25335187 16 0 16 C0 10.72 0 5.44 0 0 Z " fill="#FEFEFC" transform="translate(96,75)"/>
<path d="M0 0 C0.73347656 0.27714844 1.46695313 0.55429688 2.22265625 0.83984375 C10.1182697 4.24610244 18.20560376 11.23052199 22 19 C21.75426088 21.64601959 21.29953547 22.71627174 19.35766602 24.55566406 C18.31630493 25.27834473 18.31630493 25.27834473 17.25390625 26.015625 C16.49916016 26.54414063 15.74441406 27.07265625 14.96679688 27.6171875 C14.17337891 28.15601563 13.37996094 28.69484375 12.5625 29.25 C11.37817383 30.08144531 11.37817383 30.08144531 10.16992188 30.9296875 C4.29002463 35 4.29002463 35 2 35 C0.703125 33.390625 0.703125 33.390625 -0.75 31.25 C-4.51881407 26.05985703 -8.89606372 22.98419967 -15 21 C-27.12570481 19.86456664 -27.12570481 19.86456664 -38.36328125 23.59765625 C-43.27704056 27.8077746 -46.67793908 32.4632318 -50 38 C-38.45 38 -26.9 38 -15 38 C-16 43 -16 43 -20 52 C-30.89 52 -41.78 52 -53 52 C-53 54.64 -53 57.28 -53 60 C-41.78 60 -30.56 60 -19 60 C-24 73 -24 73 -25 74 C-26.63256758 74.15714654 -28.27135338 74.25085414 -29.91015625 74.31640625 C-30.89951172 74.35830078 -31.88886719 74.40019531 -32.90820312 74.44335938 C-33.94912109 74.48267578 -34.99003906 74.52199219 -36.0625 74.5625 C-37.10728516 74.60568359 -38.15207031 74.64886719 -39.22851562 74.69335938 C-41.81886884 74.79981225 -44.40932186 74.9018276 -47 75 C-46.23558594 75.94359375 -45.47117188 76.8871875 -44.68359375 77.859375 C-44.25361084 78.39014648 -43.82362793 78.92091797 -43.38061523 79.46777344 C-38.93850413 84.39769196 -33.14742438 86.68267468 -26.66796875 87.3359375 C-16.82663046 87.44639023 -9.25238353 86.04517257 -2 79 C-0.60644236 77.04148656 0.74282547 75.04872887 2 73 C7.43683334 74.49212776 11.69063815 77.1009183 16.375 80.125 C17.47908203 80.82689453 17.47908203 80.82689453 18.60546875 81.54296875 C20.40730078 82.68958913 22.20416431 83.84401076 24 85 C19.92168928 96.12266561 11.82111728 102.25895736 1.38671875 107.25 C-1.05077875 108.28110314 -3.48560886 109.17567737 -6 110 C-7.00353516 110.33837891 -7.00353516 110.33837891 -8.02734375 110.68359375 C-22.65067955 114.75342809 -37.56361539 111.96642175 -50.8125 105.1875 C-62.75854454 98.2594887 -70.13149744 88.36131391 -76 76 C-76 75.34 -76 74.68 -76 74 C-81.28 74 -86.56 74 -92 74 C-90.875 67.25 -90.875 67.25 -88.9375 63.625 C-88.57527344 62.93664062 -88.21304688 62.24828125 -87.83984375 61.5390625 C-87.56269531 61.03117187 -87.28554687 60.52328125 -87 60 C-84.69 60 -82.38 60 -80 60 C-80 57.36 -80 54.72 -80 52 C-83.63 52 -87.26 52 -91 52 C-90.23539233 48.17696167 -89.52385218 45.61606762 -87.9375 42.1875 C-87.57527344 41.39730469 -87.21304688 40.60710937 -86.83984375 39.79296875 C-86.56269531 39.20128906 -86.28554687 38.60960937 -86 38 C-83.36 38 -80.72 38 -78 38 C-77.85304687 37.39414063 -77.70609375 36.78828125 -77.5546875 36.1640625 C-73.77124782 22.03052347 -65.28175577 10.9708588 -52.7265625 3.5 C-36.30234614 -5.53567204 -17.51705716 -7.13105731 0 0 Z " fill="#FEFEFD" transform="translate(286,154)"/>
<path d="M0 0 C16.44013628 0 16.44013628 0 23.8125 1.1875 C24.65868896 1.3213208 25.50487793 1.4551416 26.37670898 1.59301758 C43.82849994 4.52588573 60.29191314 10.93300802 76 19 C76 19.66 76 20.32 76 21 C79.98849251 22.14262626 79.98849251 22.14262626 84 22 C86.22164812 20.15220756 87.82461633 18.19225634 89.5546875 15.8828125 C91 14 91 14 93 13 C93.31751221 14.04341553 93.63502441 15.08683105 93.9621582 16.16186523 C95.15188296 20.07043244 96.34317304 23.97852115 97.53491211 27.88647461 C98.04835343 29.57091681 98.56138249 31.25548473 99.07397461 32.94018555 C99.81513177 35.37582859 100.5578204 37.81100038 101.30078125 40.24609375 C101.52590897 40.98709824 101.75103668 41.72810272 101.98298645 42.49156189 C104.74962484 51.74127965 104.74962484 51.74127965 108.1875 60.75 C109.10838903 63.30015424 109.05792495 65.30871768 109 68 C97.66343736 66.01680819 86.33355681 63.99983665 75.01928711 61.89282227 C73.35514172 61.5844022 71.69040507 61.27915851 70.02514648 60.97680664 C67.57913055 60.53231278 65.13516174 60.07783013 62.69140625 59.62109375 C61.57289024 59.42101967 61.57289024 59.42101967 60.43177795 59.21690369 C55.22804786 58.22804786 55.22804786 58.22804786 53 56 C56.96 51.545 56.96 51.545 61 47 C41.14323799 36.35867674 22.32193123 32.20075378 0 30 C0 20.1 0 10.2 0 0 Z " fill="#78B9EA" transform="translate(180,25)"/>
<path d="M0 0 C18.78384917 3.21404861 37.39509167 6.87435944 56 11 C55.04367001 12.29315061 54.08486149 13.58446853 53.125 14.875 C52.59132812 15.59429687 52.05765625 16.31359375 51.5078125 17.0546875 C50 19 50 19 48 21 C56.60492564 27.09695736 66.01829436 30.00057121 76 33 C77.01964844 33.32097656 78.03929687 33.64195312 79.08984375 33.97265625 C88.81546276 36.74941117 98.96625491 37.16385458 109 38 C109 47.9 109 57.8 109 68 C79.56484107 68 53.56781193 60.43713836 28 46 C28 45.34 28 44.68 28 44 C27.319375 44.70125 26.63875 45.4025 25.9375 46.125 C23.815362 48.25357905 21.60597409 50.23261096 19.31640625 52.1796875 C18.6932251 52.71062012 18.07004395 53.24155273 17.42797852 53.78857422 C16.95674561 54.18834473 16.4855127 54.58811523 16 55 C15.81429947 54.38834488 15.62859894 53.77668976 15.43727112 53.14649963 C13.51072756 46.80313009 11.57978661 40.46111146 9.64624023 34.11987305 C8.92439782 31.75042816 8.20369247 29.38063657 7.48413086 27.01049805 C6.45201782 23.61155731 5.41587472 20.21386832 4.37890625 16.81640625 C4.05596085 15.74975235 3.73301544 14.68309845 3.40028381 13.5841217 C3.10004807 12.60318039 2.79981232 11.62223907 2.49047852 10.61157227 C2.22622574 9.74331314 1.96197296 8.87505402 1.68971252 7.98048401 C1.16963287 6.02456057 1.16963287 6.02456057 0 5 C-0.04063832 3.33382885 -0.042721 1.66611905 0 0 Z " fill="#78B9EA" transform="translate(71,267)"/>
<path d="M0 0 C2.18804924 3.28207385 3.18122198 6.46021677 4.27734375 10.1953125 C4.48935928 10.90219208 4.70137482 11.60907166 4.91981506 12.33737183 C5.59711696 14.59853037 6.26759731 16.86163945 6.9375 19.125 C7.81951249 22.08656712 8.70414378 25.04734626 9.58984375 28.0078125 C9.80141617 28.71574951 10.01298859 29.42368652 10.23097229 30.15307617 C12.87001006 39.07151745 12.87001006 39.07151745 16.1875 47.75 C17.10838903 50.30015424 17.05792495 52.30871768 17 55 C5.66343736 53.01680819 -5.66644319 50.99983665 -16.98071289 48.89282227 C-18.64485828 48.5844022 -20.30959493 48.27915851 -21.97485352 47.97680664 C-24.42086945 47.53231278 -26.86483826 47.07783013 -29.30859375 46.62109375 C-30.42710976 46.42101967 -30.42710976 46.42101967 -31.56822205 46.21690369 C-36.77195214 45.22804786 -36.77195214 45.22804786 -39 43 C-38.59273682 42.56768066 -38.18547363 42.13536133 -37.76586914 41.68994141 C-27.56909578 30.8588364 -17.44335017 20.06973574 -8.0859375 8.49609375 C-5.5501319 5.46167469 -2.86700443 2.71997857 0 0 Z " fill="#598AAF" transform="translate(272,38)"/>
<path d="M0 0 C18.78384917 3.21404861 37.39509167 6.87435944 56 11 C52.76167484 15.45722611 49.5610234 19.68489511 45.5625 23.5 C42.13890157 26.8435811 38.92919581 30.27341321 35.8125 33.90234375 C32.99933308 37.15809943 30.1004817 40.33587751 27.21484375 43.52734375 C24.56850387 46.48172319 21.98079538 49.4835572 19.41015625 52.50390625 C18 54 18 54 16 55 C15.81429947 54.38834488 15.62859894 53.77668976 15.43727112 53.14649963 C13.51072756 46.80313009 11.57978661 40.46111146 9.64624023 34.11987305 C8.92439782 31.75042816 8.20369247 29.38063657 7.48413086 27.01049805 C6.45201782 23.61155731 5.41587472 20.21386832 4.37890625 16.81640625 C4.05596085 15.74975235 3.73301544 14.68309845 3.40028381 13.5841217 C3.10004807 12.60318039 2.79981232 11.62223907 2.49047852 10.61157227 C2.22622574 9.74331314 1.96197296 8.87505402 1.68971252 7.98048401 C1.16963287 6.02456057 1.16963287 6.02456057 0 5 C-0.04063832 3.33382885 -0.042721 1.66611905 0 0 Z " fill="#588AAF" transform="translate(71,267)"/>
<path d="M0 0 C4.95 0 9.9 0 15 0 C15 4.95 15 9.9 15 15 C19.95 15 24.9 15 30 15 C30 10.05 30 5.1 30 0 C34.95 0 39.9 0 45 0 C45 4.95 45 9.9 45 15 C49.95 15 54.9 15 60 15 C60 18.63 60 22.26 60 26 C58.700625 25.71125 57.40125 25.4225 56.0625 25.125 C55.23878906 24.94324219 54.41507812 24.76148437 53.56640625 24.57421875 C51.94693757 24.21187188 50.32940308 23.84066159 48.71484375 23.45703125 C47.98394531 23.28558594 47.25304687 23.11414063 46.5 22.9375 C45.8503125 22.78152344 45.200625 22.62554687 44.53125 22.46484375 C23.91956605 18.67967339 4.72000993 21.63870647 -15 28 C-15 23.71 -15 19.42 -15 15 C-10.05 15 -5.1 15 0 15 C0 10.05 0 5.1 0 0 Z " fill="#F1F1F0" transform="translate(75,30)"/>
<path d="M0 0 C4.95 0 9.9 0 15 0 C15 4.95 15 9.9 15 15 C19.95 15 24.9 15 30 15 C30 19.95 30 24.9 30 30 C34.95 30 39.9 30 45 30 C45 34.95 45 39.9 45 45 C42.525 45.495 42.525 45.495 40 46 C39.36835938 45.18917969 38.73671875 44.37835938 38.0859375 43.54296875 C27.43796779 30.22086064 15.2565159 21.4573166 0 14 C0 9.38 0 4.76 0 0 Z " fill="#EFEEEC" transform="translate(300,105)"/>
<path d="M0 0 C4.95 0 9.9 0 15 0 C15 4.95 15 9.9 15 15 C19.95 15 24.9 15 30 15 C30 19.95 30 24.9 30 30 C17.18693068 32.46857299 17.18693068 32.46857299 13.29052734 29.85205078 C10.12328626 26.79781924 7.63645521 23.27095599 5.20288086 19.62084961 C3.87710745 17.71915008 3.87710745 17.71915008 1.18359375 15.49609375 C-1 13 -1 13 -1.26953125 9.66796875 C-0.84635417 6.4453125 -0.42317708 3.22265625 0 0 Z " fill="#EFEEEE" transform="translate(165,60)"/>
<path d="M0 0 C4.95 0 9.9 0 15 0 C16.2375 3.3103125 16.2375 3.3103125 17.5 6.6875 C20.12448988 13.47703885 23.47150515 19.41448256 27.4609375 25.48828125 C29 28 29 28 29 30 C24.38 30 19.76 30 15 30 C15 25.05 15 20.1 15 15 C10.05 15 5.1 15 0 15 C0 10.05 0 5.1 0 0 Z " fill="#FEFEFD" transform="translate(150,240)"/>
<path d="M0 0 C2.01401225 3.02101837 2.88267061 5.42391886 3.9453125 8.875 C4.29980469 10.02484375 4.65429688 11.1746875 5.01953125 12.359375 C5.38433594 13.56078125 5.74914062 14.7621875 6.125 16 C6.49753906 17.20140625 6.87007812 18.4028125 7.25390625 19.640625 C10 28.61320971 10 28.61320971 10 32 C6.7 32 3.4 32 0 32 C0 27.05 0 22.1 0 17 C-4.95 17 -9.9 17 -15 17 C-15 12.05 -15 7.1 -15 2 C-10.05 2 -5.1 2 0 2 C0 1.34 0 0.68 0 0 Z " fill="#ECEDEF" transform="translate(75,283)"/>
<path d="M0 0 C3.3 0 6.6 0 10 0 C10 4.95 10 9.9 10 15 C14.95 15 19.9 15 25 15 C25 19.95 25 24.9 25 30 C19.72 30 14.44 30 9 30 C6.74060497 24.11743097 4.7119398 18.19535773 2.8125 12.1875 C2.53986328 11.34251953 2.26722656 10.49753906 1.98632812 9.62695312 C1.72916016 8.81548828 1.47199219 8.00402344 1.20703125 7.16796875 C0.9747583 6.43860107 0.74248535 5.7092334 0.50317383 4.95776367 C0 3 0 3 0 0 Z " fill="#EDEEEF" transform="translate(275,45)"/>
<path d="M0 0 C2.56616632 3.84924948 2.55097676 6.4349304 3 11 C-1.62 11 -6.24 11 -11 11 C-11 15.95 -11 20.9 -11 26 C-15.95 26 -20.9 26 -26 26 C-26 22.04 -26 18.08 -26 14 C-24.87722656 13.49210938 -23.75445312 12.98421875 -22.59765625 12.4609375 C-14.67135391 8.83081309 -7.00457123 5.26839546 0 0 Z " fill="#F0EFEB" transform="translate(161,229)"/>
<path d="M0 0 C4.95 0 9.9 0 15 0 C15 3.96 15 7.92 15 12 C13.87722656 12.50789063 12.75445312 13.01578125 11.59765625 13.5390625 C3.67135391 17.16918691 -3.99542877 20.73160454 -11 26 C-13.09970981 22.0828943 -13.99334562 18.31423304 -15 14 C-10.05 14.33 -5.1 14.66 0 15 C0 10.05 0 5.1 0 0 Z " fill="#F0EFED" transform="translate(210,105)"/>
<path d="M0 0 C0 5.94 0 11.88 0 18 C-7.92 18 -15.84 18 -24 18 C-20.74095557 9.85238892 -15.82892688 4.83770926 -8 1 C-6 0 -6 0 0 0 Z " fill="#FEDA45" transform="translate(260,174)"/>
<path d="M0 0 C1.83111328 0.59748047 1.83111328 0.59748047 3.69921875 1.20703125 C13.06761623 4.23290828 22.34551004 7.02403617 32 9 C31.01 9.495 31.01 9.495 30 10 C30 13.96 30 17.92 30 22 C25.05 22 20.1 22 15 22 C15 17.05 15 12.1 15 7 C10.05 7 5.1 7 0 7 C0 4.69 0 2.38 0 0 Z " fill="#EEEFEF" transform="translate(120,323)"/>
<path d="M0 0 C4.95 0 9.9 0 15 0 C16.80761099 8.67653277 16.80761099 8.67653277 14.5078125 12.4453125 C12.75203583 14.41262852 10.96638575 16.24447357 9 18 C6.23723823 17.47731534 3.6739124 16.89130413 1 16 C-1.23102556 11.53794887 -0.04346299 4.78092876 0 0 Z " fill="#EEEFEF" transform="translate(255,30)"/>
<path d="M0 0 C4.95 0 9.9 0 15 0 C15 4.95 15 9.9 15 15 C10.05 15 5.1 15 0 15 C0 10.05 0 5.1 0 0 Z " fill="#FFFFFF" transform="translate(345,345)"/>
<path d="M0 0 C4.95 0 9.9 0 15 0 C15 4.95 15 9.9 15 15 C10.05 15 5.1 15 0 15 C0 10.05 0 5.1 0 0 Z " fill="#EFEFEF" transform="translate(330,345)"/>
<path d="M0 0 C4.95 0 9.9 0 15 0 C15 4.95 15 9.9 15 15 C10.05 15 5.1 15 0 15 C0 10.05 0 5.1 0 0 Z " fill="#FFFFFF" transform="translate(315,345)"/>
<path d="M0 0 C4.95 0 9.9 0 15 0 C15 4.95 15 9.9 15 15 C10.05 15 5.1 15 0 15 C0 10.05 0 5.1 0 0 Z " fill="#EFEFEF" transform="translate(300,345)"/>
<path d="M0 0 C4.95 0 9.9 0 15 0 C15 4.95 15 9.9 15 15 C10.05 15 5.1 15 0 15 C0 10.05 0 5.1 0 0 Z " fill="#FFFFFF" transform="translate(285,345)"/>
<path d="M0 0 C4.95 0 9.9 0 15 0 C15 4.95 15 9.9 15 15 C10.05 15 5.1 15 0 15 C0 10.05 0 5.1 0 0 Z " fill="#EFEFEF" transform="translate(270,345)"/>
<path d="M0 0 C4.95 0 9.9 0 15 0 C15 4.95 15 9.9 15 15 C10.05 15 5.1 15 0 15 C0 10.05 0 5.1 0 0 Z " fill="#FFFFFF" transform="translate(255,345)"/>
<path d="M0 0 C4.95 0 9.9 0 15 0 C15 4.95 15 9.9 15 15 C10.05 15 5.1 15 0 15 C0 10.05 0 5.1 0 0 Z " fill="#EFEFEF" transform="translate(240,345)"/>
<path d="M0 0 C4.95 0 9.9 0 15 0 C15 4.95 15 9.9 15 15 C10.05 15 5.1 15 0 15 C0 10.05 0 5.1 0 0 Z " fill="#FFFFFF" transform="translate(225,345)"/>
<path d="M0 0 C4.95 0 9.9 0 15 0 C15 4.95 15 9.9 15 15 C10.05 15 5.1 15 0 15 C0 10.05 0 5.1 0 0 Z " fill="#EFEFEF" transform="translate(210,345)"/>
<path d="M0 0 C4.95 0 9.9 0 15 0 C15 4.95 15 9.9 15 15 C10.05 15 5.1 15 0 15 C0 10.05 0 5.1 0 0 Z " fill="#FFFFFF" transform="translate(195,345)"/>
<path d="M0 0 C4.95 0 9.9 0 15 0 C15 4.95 15 9.9 15 15 C10.05 15 5.1 15 0 15 C0 10.05 0 5.1 0 0 Z " fill="#EFEFEF" transform="translate(180,345)"/>
<path d="M0 0 C4.95 0 9.9 0 15 0 C15 4.95 15 9.9 15 15 C10.05 15 5.1 15 0 15 C0 10.05 0 5.1 0 0 Z " fill="#FFFFFF" transform="translate(165,345)"/>
<path d="M0 0 C4.95 0 9.9 0 15 0 C15 4.95 15 9.9 15 15 C10.05 15 5.1 15 0 15 C0 10.05 0 5.1 0 0 Z " fill="#EFEFEF" transform="translate(150,345)"/>
<path d="M0 0 C4.95 0 9.9 0 15 0 C15 4.95 15 9.9 15 15 C10.05 15 5.1 15 0 15 C0 10.05 0 5.1 0 0 Z " fill="#FFFFFF" transform="translate(135,345)"/>
<path d="M0 0 C4.95 0 9.9 0 15 0 C15 4.95 15 9.9 15 15 C10.05 15 5.1 15 0 15 C0 10.05 0 5.1 0 0 Z " fill="#EFEFEF" transform="translate(120,345)"/>
<path d="M0 0 C4.95 0 9.9 0 15 0 C15 4.95 15 9.9 15 15 C10.05 15 5.1 15 0 15 C0 10.05 0 5.1 0 0 Z " fill="#FFFFFF" transform="translate(105,345)"/>
<path d="M0 0 C4.95 0 9.9 0 15 0 C15 4.95 15 9.9 15 15 C10.05 15 5.1 15 0 15 C0 10.05 0 5.1 0 0 Z " fill="#EFEFEF" transform="translate(90,345)"/>
<path d="M0 0 C4.95 0 9.9 0 15 0 C15 4.95 15 9.9 15 15 C10.05 15 5.1 15 0 15 C0 10.05 0 5.1 0 0 Z " fill="#FFFFFF" transform="translate(75,345)"/>
<path d="M0 0 C4.95 0 9.9 0 15 0 C15 4.95 15 9.9 15 15 C10.05 15 5.1 15 0 15 C0 10.05 0 5.1 0 0 Z " fill="#EFEFEF" transform="translate(60,345)"/>
<path d="M0 0 C4.95 0 9.9 0 15 0 C15 4.95 15 9.9 15 15 C10.05 15 5.1 15 0 15 C0 10.05 0 5.1 0 0 Z " fill="#FFFFFF" transform="translate(45,345)"/>
<path d="M0 0 C4.95 0 9.9 0 15 0 C15 4.95 15 9.9 15 15 C10.05 15 5.1 15 0 15 C0 10.05 0 5.1 0 0 Z " fill="#EFEFEF" transform="translate(30,345)"/>
<path d="M0 0 C4.95 0 9.9 0 15 0 C15 4.95 15 9.9 15 15 C10.05 15 5.1 15 0 15 C0 10.05 0 5.1 0 0 Z " fill="#FFFFFF" transform="translate(15,345)"/>
<path d="M0 0 C4.95 0 9.9 0 15 0 C15 4.95 15 9.9 15 15 C10.05 15 5.1 15 0 15 C0 10.05 0 5.1 0 0 Z " fill="#EFEFEF" transform="translate(0,345)"/>
<path d="M0 0 C4.95 0 9.9 0 15 0 C15 4.95 15 9.9 15 15 C10.05 15 5.1 15 0 15 C0 10.05 0 5.1 0 0 Z " fill="#EFEFEF" transform="translate(345,330)"/>
<path d="M0 0 C4.95 0 9.9 0 15 0 C15 4.95 15 9.9 15 15 C10.05 15 5.1 15 0 15 C0 10.05 0 5.1 0 0 Z " fill="#FFFFFF" transform="translate(330,330)"/>
<path d="M0 0 C4.95 0 9.9 0 15 0 C15 4.95 15 9.9 15 15 C10.05 15 5.1 15 0 15 C0 10.05 0 5.1 0 0 Z " fill="#EFEFEF" transform="translate(315,330)"/>
<path d="M0 0 C4.95 0 9.9 0 15 0 C15 4.95 15 9.9 15 15 C10.05 15 5.1 15 0 15 C0 10.05 0 5.1 0 0 Z " fill="#FFFFFF" transform="translate(300,330)"/>
<path d="M0 0 C4.95 0 9.9 0 15 0 C15 4.95 15 9.9 15 15 C10.05 15 5.1 15 0 15 C0 10.05 0 5.1 0 0 Z " fill="#EFEFEF" transform="translate(285,330)"/>
<path d="M0 0 C4.95 0 9.9 0 15 0 C15 4.95 15 9.9 15 15 C10.05 15 5.1 15 0 15 C0 10.05 0 5.1 0 0 Z " fill="#FFFFFF" transform="translate(270,330)"/>
<path d="M0 0 C4.95 0 9.9 0 15 0 C15 4.95 15 9.9 15 15 C10.05 15 5.1 15 0 15 C0 10.05 0 5.1 0 0 Z " fill="#FFFFFF" transform="translate(240,330)"/>
<path d="M0 0 C4.95 0 9.9 0 15 0 C15 4.95 15 9.9 15 15 C10.05 15 5.1 15 0 15 C0 10.05 0 5.1 0 0 Z " fill="#EFEFEF" transform="translate(225,330)"/>
<path d="M0 0 C4.95 0 9.9 0 15 0 C15 4.95 15 9.9 15 15 C10.05 15 5.1 15 0 15 C0 10.05 0 5.1 0 0 Z " fill="#FFFFFF" transform="translate(210,330)"/>
<path d="M0 0 C4.95 0 9.9 0 15 0 C15 4.95 15 9.9 15 15 C10.05 15 5.1 15 0 15 C0 10.05 0 5.1 0 0 Z " fill="#EFEFEF" transform="translate(195,330)"/>
<path d="M0 0 C4.95 0 9.9 0 15 0 C15 4.95 15 9.9 15 15 C10.05 15 5.1 15 0 15 C0 10.05 0 5.1 0 0 Z " fill="#FFFFFF" transform="translate(180,330)"/>
<path d="M0 0 C4.95 0 9.9 0 15 0 C15 4.95 15 9.9 15 15 C10.05 15 5.1 15 0 15 C0 10.05 0 5.1 0 0 Z " fill="#FFFFFF" transform="translate(120,330)"/>
<path d="M0 0 C4.95 0 9.9 0 15 0 C15 4.95 15 9.9 15 15 C10.05 15 5.1 15 0 15 C0 10.05 0 5.1 0 0 Z " fill="#EFEFEF" transform="translate(105,330)"/>
<path d="M0 0 C4.95 0 9.9 0 15 0 C15 4.95 15 9.9 15 15 C10.05 15 5.1 15 0 15 C0 10.05 0 5.1 0 0 Z " fill="#FFFFFF" transform="translate(90,330)"/>
<path d="M0 0 C4.95 0 9.9 0 15 0 C15 4.95 15 9.9 15 15 C10.05 15 5.1 15 0 15 C0 10.05 0 5.1 0 0 Z " fill="#EFEFEF" transform="translate(75,330)"/>
<path d="M0 0 C4.95 0 9.9 0 15 0 C15 4.95 15 9.9 15 15 C10.05 15 5.1 15 0 15 C0 10.05 0 5.1 0 0 Z " fill="#FFFFFF" transform="translate(60,330)"/>
<path d="M0 0 C4.95 0 9.9 0 15 0 C15 4.95 15 9.9 15 15 C10.05 15 5.1 15 0 15 C0 10.05 0 5.1 0 0 Z " fill="#EFEFEF" transform="translate(45,330)"/>
<path d="M0 0 C4.95 0 9.9 0 15 0 C15 4.95 15 9.9 15 15 C10.05 15 5.1 15 0 15 C0 10.05 0 5.1 0 0 Z " fill="#FFFFFF" transform="translate(30,330)"/>
<path d="M0 0 C4.95 0 9.9 0 15 0 C15 4.95 15 9.9 15 15 C10.05 15 5.1 15 0 15 C0 10.05 0 5.1 0 0 Z " fill="#EFEFEF" transform="translate(15,330)"/>
<path d="M0 0 C4.95 0 9.9 0 15 0 C15 4.95 15 9.9 15 15 C10.05 15 5.1 15 0 15 C0 10.05 0 5.1 0 0 Z " fill="#FFFFFF" transform="translate(0,330)"/>
<path d="M0 0 C4.95 0 9.9 0 15 0 C15 4.95 15 9.9 15 15 C10.05 15 5.1 15 0 15 C0 10.05 0 5.1 0 0 Z " fill="#FFFFFF" transform="translate(345,315)"/>
<path d="M0 0 C4.95 0 9.9 0 15 0 C15 4.95 15 9.9 15 15 C10.05 15 5.1 15 0 15 C0 10.05 0 5.1 0 0 Z " fill="#EFEFEF" transform="translate(330,315)"/>
<path d="M0 0 C4.95 0 9.9 0 15 0 C15 4.95 15 9.9 15 15 C10.05 15 5.1 15 0 15 C0 10.05 0 5.1 0 0 Z " fill="#FFFFFF" transform="translate(315,315)"/>
<path d="M0 0 C4.95 0 9.9 0 15 0 C15 4.95 15 9.9 15 15 C10.05 15 5.1 15 0 15 C0 10.05 0 5.1 0 0 Z " fill="#EFEFEF" transform="translate(300,315)"/>
<path d="M0 0 C4.95 0 9.9 0 15 0 C15 4.95 15 9.9 15 15 C10.05 15 5.1 15 0 15 C0 10.05 0 5.1 0 0 Z " fill="#FFFFFF" transform="translate(285,315)"/>
<path d="M0 0 C4.95 0 9.9 0 15 0 C15 4.95 15 9.9 15 15 C10.05 15 5.1 15 0 15 C0 10.05 0 5.1 0 0 Z " fill="#EFEFEF" transform="translate(270,315)"/>
<path d="M0 0 C4.95 0 9.9 0 15 0 C15 4.95 15 9.9 15 15 C10.05 15 5.1 15 0 15 C0 10.05 0 5.1 0 0 Z " fill="#FFFFFF" transform="translate(255,315)"/>
<path d="M0 0 C4.95 0 9.9 0 15 0 C15 4.95 15 9.9 15 15 C10.05 15 5.1 15 0 15 C0 10.05 0 5.1 0 0 Z " fill="#FFFFFF" transform="translate(225,315)"/>
<path d="M0 0 C4.95 0 9.9 0 15 0 C15 4.95 15 9.9 15 15 C10.05 15 5.1 15 0 15 C0 10.05 0 5.1 0 0 Z " fill="#EFEFEF" transform="translate(210,315)"/>
<path d="M0 0 C4.95 0 9.9 0 15 0 C15 4.95 15 9.9 15 15 C10.05 15 5.1 15 0 15 C0 10.05 0 5.1 0 0 Z " fill="#FFFFFF" transform="translate(195,315)"/>
<path d="M0 0 C4.95 0 9.9 0 15 0 C15 4.95 15 9.9 15 15 C10.05 15 5.1 15 0 15 C0 10.05 0 5.1 0 0 Z " fill="#EFEFEF" transform="translate(180,315)"/>
<path d="M0 0 C4.95 0 9.9 0 15 0 C15 4.95 15 9.9 15 15 C10.05 15 5.1 15 0 15 C0 10.05 0 5.1 0 0 Z " fill="#EFEFEF" transform="translate(60,315)"/>
<path d="M0 0 C4.95 0 9.9 0 15 0 C15 4.95 15 9.9 15 15 C10.05 15 5.1 15 0 15 C0 10.05 0 5.1 0 0 Z " fill="#FFFFFF" transform="translate(45,315)"/>
<path d="M0 0 C4.95 0 9.9 0 15 0 C15 4.95 15 9.9 15 15 C10.05 15 5.1 15 0 15 C0 10.05 0 5.1 0 0 Z " fill="#EFEFEF" transform="translate(30,315)"/>
<path d="M0 0 C4.95 0 9.9 0 15 0 C15 4.95 15 9.9 15 15 C10.05 15 5.1 15 0 15 C0 10.05 0 5.1 0 0 Z " fill="#FFFFFF" transform="translate(15,315)"/>
<path d="M0 0 C4.95 0 9.9 0 15 0 C15 4.95 15 9.9 15 15 C10.05 15 5.1 15 0 15 C0 10.05 0 5.1 0 0 Z " fill="#EFEFEF" transform="translate(0,315)"/>
<path d="M0 0 C4.95 0 9.9 0 15 0 C15 4.95 15 9.9 15 15 C10.05 15 5.1 15 0 15 C0 10.05 0 5.1 0 0 Z " fill="#EFEFEF" transform="translate(345,300)"/>
<path d="M0 0 C4.95 0 9.9 0 15 0 C15 4.95 15 9.9 15 15 C10.05 15 5.1 15 0 15 C0 10.05 0 5.1 0 0 Z " fill="#FFFFFF" transform="translate(330,300)"/>
<path d="M0 0 C4.95 0 9.9 0 15 0 C15 4.95 15 9.9 15 15 C10.05 15 5.1 15 0 15 C0 10.05 0 5.1 0 0 Z " fill="#EFEFEF" transform="translate(315,300)"/>
<path d="M0 0 C4.95 0 9.9 0 15 0 C15 4.95 15 9.9 15 15 C10.05 15 5.1 15 0 15 C0 10.05 0 5.1 0 0 Z " fill="#EFEFEF" transform="translate(195,300)"/>
<path d="M0 0 C4.95 0 9.9 0 15 0 C15 4.95 15 9.9 15 15 C10.05 15 5.1 15 0 15 C0 10.05 0 5.1 0 0 Z " fill="#FFFFFF" transform="translate(60,300)"/>
<path d="M0 0 C4.95 0 9.9 0 15 0 C15 4.95 15 9.9 15 15 C10.05 15 5.1 15 0 15 C0 10.05 0 5.1 0 0 Z " fill="#EFEFEF" transform="translate(45,300)"/>
<path d="M0 0 C4.95 0 9.9 0 15 0 C15 4.95 15 9.9 15 15 C10.05 15 5.1 15 0 15 C0 10.05 0 5.1 0 0 Z " fill="#FFFFFF" transform="translate(30,300)"/>
<path d="M0 0 C4.95 0 9.9 0 15 0 C15 4.95 15 9.9 15 15 C10.05 15 5.1 15 0 15 C0 10.05 0 5.1 0 0 Z " fill="#EFEFEF" transform="translate(15,300)"/>
<path d="M0 0 C4.95 0 9.9 0 15 0 C15 4.95 15 9.9 15 15 C10.05 15 5.1 15 0 15 C0 10.05 0 5.1 0 0 Z " fill="#FFFFFF" transform="translate(0,300)"/>
<path d="M0 0 C4.95 0 9.9 0 15 0 C15 4.95 15 9.9 15 15 C10.05 15 5.1 15 0 15 C0 10.05 0 5.1 0 0 Z " fill="#FFFFFF" transform="translate(345,285)"/>
<path d="M0 0 C4.95 0 9.9 0 15 0 C15 4.95 15 9.9 15 15 C10.05 15 5.1 15 0 15 C0 10.05 0 5.1 0 0 Z " fill="#EFEFEF" transform="translate(330,285)"/>
<path d="M0 0 C4.95 0 9.9 0 15 0 C15 4.95 15 9.9 15 15 C10.05 15 5.1 15 0 15 C0 10.05 0 5.1 0 0 Z " fill="#FFFFFF" transform="translate(165,285)"/>
<path d="M0 0 C4.95 0 9.9 0 15 0 C15 4.95 15 9.9 15 15 C10.05 15 5.1 15 0 15 C0 10.05 0 5.1 0 0 Z " fill="#EFEFEF" transform="translate(150,285)"/>
<path d="M0 0 C4.95 0 9.9 0 15 0 C15 4.95 15 9.9 15 15 C10.05 15 5.1 15 0 15 C0 10.05 0 5.1 0 0 Z " fill="#FFFFFF" transform="translate(45,285)"/>
<path d="M0 0 C4.95 0 9.9 0 15 0 C15 4.95 15 9.9 15 15 C10.05 15 5.1 15 0 15 C0 10.05 0 5.1 0 0 Z " fill="#EFEFEF" transform="translate(30,285)"/>
<path d="M0 0 C4.95 0 9.9 0 15 0 C15 4.95 15 9.9 15 15 C10.05 15 5.1 15 0 15 C0 10.05 0 5.1 0 0 Z " fill="#FFFFFF" transform="translate(15,285)"/>
<path d="M0 0 C4.95 0 9.9 0 15 0 C15 4.95 15 9.9 15 15 C10.05 15 5.1 15 0 15 C0 10.05 0 5.1 0 0 Z " fill="#EFEFEF" transform="translate(0,285)"/>
<path d="M0 0 C4.95 0 9.9 0 15 0 C15 4.95 15 9.9 15 15 C10.05 15 5.1 15 0 15 C0 10.05 0 5.1 0 0 Z " fill="#EFEFEF" transform="translate(345,270)"/>
<path d="M0 0 C4.95 0 9.9 0 15 0 C15 4.95 15 9.9 15 15 C10.05 15 5.1 15 0 15 C0 10.05 0 5.1 0 0 Z " fill="#FFFFFF" transform="translate(150,270)"/>
<path d="M0 0 C4.95 0 9.9 0 15 0 C15 4.95 15 9.9 15 15 C10.05 15 5.1 15 0 15 C0 10.05 0 5.1 0 0 Z " fill="#EFEFEF" transform="translate(135,270)"/>
<path d="M0 0 C4.95 0 9.9 0 15 0 C15 4.95 15 9.9 15 15 C10.05 15 5.1 15 0 15 C0 10.05 0 5.1 0 0 Z " fill="#FFFFFF" transform="translate(30,270)"/>
<path d="M0 0 C4.95 0 9.9 0 15 0 C15 4.95 15 9.9 15 15 C10.05 15 5.1 15 0 15 C0 10.05 0 5.1 0 0 Z " fill="#EFEFEF" transform="translate(15,270)"/>
<path d="M0 0 C4.95 0 9.9 0 15 0 C15 4.95 15 9.9 15 15 C10.05 15 5.1 15 0 15 C0 10.05 0 5.1 0 0 Z " fill="#FFFFFF" transform="translate(0,270)"/>
<path d="M0 0 C4.95 0 9.9 0 15 0 C15 4.95 15 9.9 15 15 C10.05 15 5.1 15 0 15 C0 10.05 0 5.1 0 0 Z " fill="#EFEFEF" transform="translate(150,255)"/>
<path d="M0 0 C4.95 0 9.9 0 15 0 C15 4.95 15 9.9 15 15 C10.05 15 5.1 15 0 15 C0 10.05 0 5.1 0 0 Z " fill="#FFFFFF" transform="translate(135,255)"/>
<path d="M0 0 C4.95 0 9.9 0 15 0 C15 4.95 15 9.9 15 15 C10.05 15 5.1 15 0 15 C0 10.05 0 5.1 0 0 Z " fill="#EFEFEF" transform="translate(120,255)"/>
<path d="M0 0 C4.95 0 9.9 0 15 0 C15 4.95 15 9.9 15 15 C10.05 15 5.1 15 0 15 C0 10.05 0 5.1 0 0 Z " fill="#FFFFFF" transform="translate(105,255)"/>
<path d="M0 0 C4.95 0 9.9 0 15 0 C15 4.95 15 9.9 15 15 C10.05 15 5.1 15 0 15 C0 10.05 0 5.1 0 0 Z " fill="#FFFFFF" transform="translate(45,255)"/>
<path d="M0 0 C4.95 0 9.9 0 15 0 C15 4.95 15 9.9 15 15 C10.05 15 5.1 15 0 15 C0 10.05 0 5.1 0 0 Z " fill="#EFEFEF" transform="translate(30,255)"/>
<path d="M0 0 C4.95 0 9.9 0 15 0 C15 4.95 15 9.9 15 15 C10.05 15 5.1 15 0 15 C0 10.05 0 5.1 0 0 Z " fill="#FFFFFF" transform="translate(15,255)"/>
<path d="M0 0 C4.95 0 9.9 0 15 0 C15 4.95 15 9.9 15 15 C10.05 15 5.1 15 0 15 C0 10.05 0 5.1 0 0 Z " fill="#EFEFEF" transform="translate(0,255)"/>
<path d="M0 0 C4.95 0 9.9 0 15 0 C15 4.95 15 9.9 15 15 C10.05 15 5.1 15 0 15 C0 10.05 0 5.1 0 0 Z " fill="#FFFFFF" transform="translate(30,240)"/>
<path d="M0 0 C4.95 0 9.9 0 15 0 C15 4.95 15 9.9 15 15 C10.05 15 5.1 15 0 15 C0 10.05 0 5.1 0 0 Z " fill="#EFEFEF" transform="translate(15,240)"/>
<path d="M0 0 C4.95 0 9.9 0 15 0 C15 4.95 15 9.9 15 15 C10.05 15 5.1 15 0 15 C0 10.05 0 5.1 0 0 Z " fill="#FFFFFF" transform="translate(0,240)"/>
<path d="M0 0 C4.95 0 9.9 0 15 0 C15 4.95 15 9.9 15 15 C10.05 15 5.1 15 0 15 C0 10.05 0 5.1 0 0 Z " fill="#FFFFFF" transform="translate(15,225)"/>
<path d="M0 0 C4.95 0 9.9 0 15 0 C15 4.95 15 9.9 15 15 C10.05 15 5.1 15 0 15 C0 10.05 0 5.1 0 0 Z " fill="#EFEFEF" transform="translate(0,225)"/>
<path d="M0 0 C4.95 0 9.9 0 15 0 C15 4.95 15 9.9 15 15 C10.05 15 5.1 15 0 15 C0 10.05 0 5.1 0 0 Z " fill="#FFFFFF" transform="translate(0,210)"/>
<path d="M0 0 C4.95 0 9.9 0 15 0 C15 4.95 15 9.9 15 15 C10.05 15 5.1 15 0 15 C0 10.05 0 5.1 0 0 Z " fill="#FFFFFF" transform="translate(345,135)"/>
<path d="M0 0 C4.95 0 9.9 0 15 0 C15 4.95 15 9.9 15 15 C10.05 15 5.1 15 0 15 C0 10.05 0 5.1 0 0 Z " fill="#EFEFEF" transform="translate(345,120)"/>
<path d="M0 0 C4.95 0 9.9 0 15 0 C15 4.95 15 9.9 15 15 C10.05 15 5.1 15 0 15 C0 10.05 0 5.1 0 0 Z " fill="#FFFFFF" transform="translate(330,120)"/>
<path d="M0 0 C4.95 0 9.9 0 15 0 C15 4.95 15 9.9 15 15 C10.05 15 5.1 15 0 15 C0 10.05 0 5.1 0 0 Z " fill="#FFFFFF" transform="translate(345,105)"/>
<path d="M0 0 C4.95 0 9.9 0 15 0 C15 4.95 15 9.9 15 15 C10.05 15 5.1 15 0 15 C0 10.05 0 5.1 0 0 Z " fill="#EFEFEF" transform="translate(330,105)"/>
<path d="M0 0 C4.95 0 9.9 0 15 0 C15 4.95 15 9.9 15 15 C10.05 15 5.1 15 0 15 C0 10.05 0 5.1 0 0 Z " fill="#FFFFFF" transform="translate(315,105)"/>
<path d="M0 0 C4.95 0 9.9 0 15 0 C15 4.95 15 9.9 15 15 C10.05 15 5.1 15 0 15 C0 10.05 0 5.1 0 0 Z " fill="#EFEFEF" transform="translate(345,90)"/>
<path d="M0 0 C4.95 0 9.9 0 15 0 C15 4.95 15 9.9 15 15 C10.05 15 5.1 15 0 15 C0 10.05 0 5.1 0 0 Z " fill="#FFFFFF" transform="translate(330,90)"/>
<path d="M0 0 C4.95 0 9.9 0 15 0 C15 4.95 15 9.9 15 15 C10.05 15 5.1 15 0 15 C0 10.05 0 5.1 0 0 Z " fill="#EFEFEF" transform="translate(315,90)"/>
<path d="M0 0 C4.95 0 9.9 0 15 0 C15 4.95 15 9.9 15 15 C10.05 15 5.1 15 0 15 C0 10.05 0 5.1 0 0 Z " fill="#FFFFFF" transform="translate(300,90)"/>
<path d="M0 0 C4.95 0 9.9 0 15 0 C15 4.95 15 9.9 15 15 C10.05 15 5.1 15 0 15 C0 10.05 0 5.1 0 0 Z " fill="#FFFFFF" transform="translate(240,90)"/>
<path d="M0 0 C4.95 0 9.9 0 15 0 C15 4.95 15 9.9 15 15 C10.05 15 5.1 15 0 15 C0 10.05 0 5.1 0 0 Z " fill="#EFEFEF" transform="translate(225,90)"/>
<path d="M0 0 C4.95 0 9.9 0 15 0 C15 4.95 15 9.9 15 15 C10.05 15 5.1 15 0 15 C0 10.05 0 5.1 0 0 Z " fill="#FFFFFF" transform="translate(210,90)"/>
<path d="M0 0 C4.95 0 9.9 0 15 0 C15 4.95 15 9.9 15 15 C10.05 15 5.1 15 0 15 C0 10.05 0 5.1 0 0 Z " fill="#EFEFEF" transform="translate(195,90)"/>
<path d="M0 0 C4.95 0 9.9 0 15 0 C15 4.95 15 9.9 15 15 C10.05 15 5.1 15 0 15 C0 10.05 0 5.1 0 0 Z " fill="#FFFFFF" transform="translate(345,75)"/>
<path d="M0 0 C4.95 0 9.9 0 15 0 C15 4.95 15 9.9 15 15 C10.05 15 5.1 15 0 15 C0 10.05 0 5.1 0 0 Z " fill="#EFEFEF" transform="translate(330,75)"/>
<path d="M0 0 C4.95 0 9.9 0 15 0 C15 4.95 15 9.9 15 15 C10.05 15 5.1 15 0 15 C0 10.05 0 5.1 0 0 Z " fill="#FFFFFF" transform="translate(315,75)"/>
<path d="M0 0 C4.95 0 9.9 0 15 0 C15 4.95 15 9.9 15 15 C10.05 15 5.1 15 0 15 C0 10.05 0 5.1 0 0 Z " fill="#EFEFEF" transform="translate(210,75)"/>
<path d="M0 0 C4.95 0 9.9 0 15 0 C15 4.95 15 9.9 15 15 C10.05 15 5.1 15 0 15 C0 10.05 0 5.1 0 0 Z " fill="#FFFFFF" transform="translate(195,75)"/>
<path d="M0 0 C4.95 0 9.9 0 15 0 C15 4.95 15 9.9 15 15 C10.05 15 5.1 15 0 15 C0 10.05 0 5.1 0 0 Z " fill="#EFEFEF" transform="translate(0,75)"/>
<path d="M0 0 C4.95 0 9.9 0 15 0 C15 4.95 15 9.9 15 15 C10.05 15 5.1 15 0 15 C0 10.05 0 5.1 0 0 Z " fill="#EFEFEF" transform="translate(345,60)"/>
<path d="M0 0 C4.95 0 9.9 0 15 0 C15 4.95 15 9.9 15 15 C10.05 15 5.1 15 0 15 C0 10.05 0 5.1 0 0 Z " fill="#FFFFFF" transform="translate(330,60)"/>
<path d="M0 0 C4.95 0 9.9 0 15 0 C15 4.95 15 9.9 15 15 C10.05 15 5.1 15 0 15 C0 10.05 0 5.1 0 0 Z " fill="#EFEFEF" transform="translate(315,60)"/>
<path d="M0 0 C4.95 0 9.9 0 15 0 C15 4.95 15 9.9 15 15 C10.05 15 5.1 15 0 15 C0 10.05 0 5.1 0 0 Z " fill="#FFFFFF" transform="translate(300,60)"/>
<path d="M0 0 C4.95 0 9.9 0 15 0 C15 4.95 15 9.9 15 15 C10.05 15 5.1 15 0 15 C0 10.05 0 5.1 0 0 Z " fill="#EFEFEF" transform="translate(195,60)"/>
<path d="M0 0 C4.95 0 9.9 0 15 0 C15 4.95 15 9.9 15 15 C10.05 15 5.1 15 0 15 C0 10.05 0 5.1 0 0 Z " fill="#EFEFEF" transform="translate(15,60)"/>
<path d="M0 0 C4.95 0 9.9 0 15 0 C15 4.95 15 9.9 15 15 C10.05 15 5.1 15 0 15 C0 10.05 0 5.1 0 0 Z " fill="#FFFFFF" transform="translate(0,60)"/>
<path d="M0 0 C4.95 0 9.9 0 15 0 C15 4.95 15 9.9 15 15 C10.05 15 5.1 15 0 15 C0 10.05 0 5.1 0 0 Z " fill="#FFFFFF" transform="translate(345,45)"/>
<path d="M0 0 C4.95 0 9.9 0 15 0 C15 4.95 15 9.9 15 15 C10.05 15 5.1 15 0 15 C0 10.05 0 5.1 0 0 Z " fill="#EFEFEF" transform="translate(330,45)"/>
<path d="M0 0 C4.95 0 9.9 0 15 0 C15 4.95 15 9.9 15 15 C10.05 15 5.1 15 0 15 C0 10.05 0 5.1 0 0 Z " fill="#FFFFFF" transform="translate(315,45)"/>
<path d="M0 0 C4.95 0 9.9 0 15 0 C15 4.95 15 9.9 15 15 C10.05 15 5.1 15 0 15 C0 10.05 0 5.1 0 0 Z " fill="#EFEFEF" transform="translate(300,45)"/>
<path d="M0 0 C4.95 0 9.9 0 15 0 C15 4.95 15 9.9 15 15 C10.05 15 5.1 15 0 15 C0 10.05 0 5.1 0 0 Z " fill="#FFFFFF" transform="translate(285,45)"/>
<path d="M0 0 C4.95 0 9.9 0 15 0 C15 4.95 15 9.9 15 15 C10.05 15 5.1 15 0 15 C0 10.05 0 5.1 0 0 Z " fill="#FFFFFF" transform="translate(165,45)"/>
<path d="M0 0 C4.95 0 9.9 0 15 0 C15 4.95 15 9.9 15 15 C10.05 15 5.1 15 0 15 C0 10.05 0 5.1 0 0 Z " fill="#EFEFEF" transform="translate(150,45)"/>
<path d="M0 0 C4.95 0 9.9 0 15 0 C15 4.95 15 9.9 15 15 C10.05 15 5.1 15 0 15 C0 10.05 0 5.1 0 0 Z " fill="#EFEFEF" transform="translate(30,45)"/>
<path d="M0 0 C4.95 0 9.9 0 15 0 C15 4.95 15 9.9 15 15 C10.05 15 5.1 15 0 15 C0 10.05 0 5.1 0 0 Z " fill="#FFFFFF" transform="translate(15,45)"/>
<path d="M0 0 C4.95 0 9.9 0 15 0 C15 4.95 15 9.9 15 15 C10.05 15 5.1 15 0 15 C0 10.05 0 5.1 0 0 Z " fill="#EFEFEF" transform="translate(0,45)"/>
<path d="M0 0 C4.95 0 9.9 0 15 0 C15 4.95 15 9.9 15 15 C10.05 15 5.1 15 0 15 C0 10.05 0 5.1 0 0 Z " fill="#EFEFEF" transform="translate(345,30)"/>
<path d="M0 0 C4.95 0 9.9 0 15 0 C15 4.95 15 9.9 15 15 C10.05 15 5.1 15 0 15 C0 10.05 0 5.1 0 0 Z " fill="#FFFFFF" transform="translate(330,30)"/>
<path d="M0 0 C4.95 0 9.9 0 15 0 C15 4.95 15 9.9 15 15 C10.05 15 5.1 15 0 15 C0 10.05 0 5.1 0 0 Z " fill="#EFEFEF" transform="translate(315,30)"/>
<path d="M0 0 C4.95 0 9.9 0 15 0 C15 4.95 15 9.9 15 15 C10.05 15 5.1 15 0 15 C0 10.05 0 5.1 0 0 Z " fill="#FFFFFF" transform="translate(300,30)"/>
<path d="M0 0 C4.95 0 9.9 0 15 0 C15 4.95 15 9.9 15 15 C10.05 15 5.1 15 0 15 C0 10.05 0 5.1 0 0 Z " fill="#EFEFEF" transform="translate(285,30)"/>
<path d="M0 0 C4.95 0 9.9 0 15 0 C15 4.95 15 9.9 15 15 C10.05 15 5.1 15 0 15 C0 10.05 0 5.1 0 0 Z " fill="#EFEFEF" transform="translate(165,30)"/>
<path d="M0 0 C4.95 0 9.9 0 15 0 C15 4.95 15 9.9 15 15 C10.05 15 5.1 15 0 15 C0 10.05 0 5.1 0 0 Z " fill="#FFFFFF" transform="translate(150,30)"/>
<path d="M0 0 C4.95 0 9.9 0 15 0 C15 4.95 15 9.9 15 15 C10.05 15 5.1 15 0 15 C0 10.05 0 5.1 0 0 Z " fill="#EFEFEF" transform="translate(135,30)"/>
<path d="M0 0 C4.95 0 9.9 0 15 0 C15 4.95 15 9.9 15 15 C10.05 15 5.1 15 0 15 C0 10.05 0 5.1 0 0 Z " fill="#FFFFFF" transform="translate(120,30)"/>
<path d="M0 0 C4.95 0 9.9 0 15 0 C15 4.95 15 9.9 15 15 C10.05 15 5.1 15 0 15 C0 10.05 0 5.1 0 0 Z " fill="#FFFFFF" transform="translate(90,30)"/>
<path d="M0 0 C4.95 0 9.9 0 15 0 C15 4.95 15 9.9 15 15 C10.05 15 5.1 15 0 15 C0 10.05 0 5.1 0 0 Z " fill="#FFFFFF" transform="translate(60,30)"/>
<path d="M0 0 C4.95 0 9.9 0 15 0 C15 4.95 15 9.9 15 15 C10.05 15 5.1 15 0 15 C0 10.05 0 5.1 0 0 Z " fill="#EFEFEF" transform="translate(45,30)"/>
<path d="M0 0 C4.95 0 9.9 0 15 0 C15 4.95 15 9.9 15 15 C10.05 15 5.1 15 0 15 C0 10.05 0 5.1 0 0 Z " fill="#FFFFFF" transform="translate(30,30)"/>
<path d="M0 0 C4.95 0 9.9 0 15 0 C15 4.95 15 9.9 15 15 C10.05 15 5.1 15 0 15 C0 10.05 0 5.1 0 0 Z " fill="#EFEFEF" transform="translate(15,30)"/>
<path d="M0 0 C4.95 0 9.9 0 15 0 C15 4.95 15 9.9 15 15 C10.05 15 5.1 15 0 15 C0 10.05 0 5.1 0 0 Z " fill="#FFFFFF" transform="translate(0,30)"/>
<path d="M0 0 C4.95 0 9.9 0 15 0 C15 4.95 15 9.9 15 15 C10.05 15 5.1 15 0 15 C0 10.05 0 5.1 0 0 Z " fill="#FFFFFF" transform="translate(345,15)"/>
<path d="M0 0 C4.95 0 9.9 0 15 0 C15 4.95 15 9.9 15 15 C10.05 15 5.1 15 0 15 C0 10.05 0 5.1 0 0 Z " fill="#EFEFEF" transform="translate(330,15)"/>
<path d="M0 0 C4.95 0 9.9 0 15 0 C15 4.95 15 9.9 15 15 C10.05 15 5.1 15 0 15 C0 10.05 0 5.1 0 0 Z " fill="#FFFFFF" transform="translate(315,15)"/>
<path d="M0 0 C4.95 0 9.9 0 15 0 C15 4.95 15 9.9 15 15 C10.05 15 5.1 15 0 15 C0 10.05 0 5.1 0 0 Z " fill="#EFEFEF" transform="translate(300,15)"/>
<path d="M0 0 C4.95 0 9.9 0 15 0 C15 4.95 15 9.9 15 15 C10.05 15 5.1 15 0 15 C0 10.05 0 5.1 0 0 Z " fill="#FFFFFF" transform="translate(285,15)"/>
<path d="M0 0 C4.95 0 9.9 0 15 0 C15 4.95 15 9.9 15 15 C10.05 15 5.1 15 0 15 C0 10.05 0 5.1 0 0 Z " fill="#FFFFFF" transform="translate(255,15)"/>
<path d="M0 0 C4.95 0 9.9 0 15 0 C15 4.95 15 9.9 15 15 C10.05 15 5.1 15 0 15 C0 10.05 0 5.1 0 0 Z " fill="#FFFFFF" transform="translate(225,15)"/>
<path d="M0 0 C4.95 0 9.9 0 15 0 C15 4.95 15 9.9 15 15 C10.05 15 5.1 15 0 15 C0 10.05 0 5.1 0 0 Z " fill="#FFFFFF" transform="translate(165,15)"/>
<path d="M0 0 C4.95 0 9.9 0 15 0 C15 4.95 15 9.9 15 15 C10.05 15 5.1 15 0 15 C0 10.05 0 5.1 0 0 Z " fill="#EFEFEF" transform="translate(150,15)"/>
<path d="M0 0 C4.95 0 9.9 0 15 0 C15 4.95 15 9.9 15 15 C10.05 15 5.1 15 0 15 C0 10.05 0 5.1 0 0 Z " fill="#FFFFFF" transform="translate(135,15)"/>
<path d="M0 0 C4.95 0 9.9 0 15 0 C15 4.95 15 9.9 15 15 C10.05 15 5.1 15 0 15 C0 10.05 0 5.1 0 0 Z " fill="#EFEFEF" transform="translate(120,15)"/>
<path d="M0 0 C4.95 0 9.9 0 15 0 C15 4.95 15 9.9 15 15 C10.05 15 5.1 15 0 15 C0 10.05 0 5.1 0 0 Z " fill="#FFFFFF" transform="translate(105,15)"/>
<path d="M0 0 C4.95 0 9.9 0 15 0 C15 4.95 15 9.9 15 15 C10.05 15 5.1 15 0 15 C0 10.05 0 5.1 0 0 Z " fill="#EFEFEF" transform="translate(90,15)"/>
<path d="M0 0 C4.95 0 9.9 0 15 0 C15 4.95 15 9.9 15 15 C10.05 15 5.1 15 0 15 C0 10.05 0 5.1 0 0 Z " fill="#FFFFFF" transform="translate(75,15)"/>
<path d="M0 0 C4.95 0 9.9 0 15 0 C15 4.95 15 9.9 15 15 C10.05 15 5.1 15 0 15 C0 10.05 0 5.1 0 0 Z " fill="#EFEFEF" transform="translate(60,15)"/>
<path d="M0 0 C4.95 0 9.9 0 15 0 C15 4.95 15 9.9 15 15 C10.05 15 5.1 15 0 15 C0 10.05 0 5.1 0 0 Z " fill="#FFFFFF" transform="translate(45,15)"/>
<path d="M0 0 C4.95 0 9.9 0 15 0 C15 4.95 15 9.9 15 15 C10.05 15 5.1 15 0 15 C0 10.05 0 5.1 0 0 Z " fill="#EFEFEF" transform="translate(30,15)"/>
<path d="M0 0 C4.95 0 9.9 0 15 0 C15 4.95 15 9.9 15 15 C10.05 15 5.1 15 0 15 C0 10.05 0 5.1 0 0 Z " fill="#FFFFFF" transform="translate(15,15)"/>
<path d="M0 0 C4.95 0 9.9 0 15 0 C15 4.95 15 9.9 15 15 C10.05 15 5.1 15 0 15 C0 10.05 0 5.1 0 0 Z " fill="#EFEFEF" transform="translate(0,15)"/>
<path d="M0 0 C4.95 0 9.9 0 15 0 C15 4.95 15 9.9 15 15 C10.05 15 5.1 15 0 15 C0 10.05 0 5.1 0 0 Z " fill="#EFEFEF" transform="translate(345,0)"/>
<path d="M0 0 C4.95 0 9.9 0 15 0 C15 4.95 15 9.9 15 15 C10.05 15 5.1 15 0 15 C0 10.05 0 5.1 0 0 Z " fill="#FFFFFF" transform="translate(330,0)"/>
<path d="M0 0 C4.95 0 9.9 0 15 0 C15 4.95 15 9.9 15 15 C10.05 15 5.1 15 0 15 C0 10.05 0 5.1 0 0 Z " fill="#EFEFEF" transform="translate(315,0)"/>
<path d="M0 0 C4.95 0 9.9 0 15 0 C15 4.95 15 9.9 15 15 C10.05 15 5.1 15 0 15 C0 10.05 0 5.1 0 0 Z " fill="#FFFFFF" transform="translate(300,0)"/>
<path d="M0 0 C4.95 0 9.9 0 15 0 C15 4.95 15 9.9 15 15 C10.05 15 5.1 15 0 15 C0 10.05 0 5.1 0 0 Z " fill="#EFEFEF" transform="translate(285,0)"/>
<path d="M0 0 C4.95 0 9.9 0 15 0 C15 4.95 15 9.9 15 15 C10.05 15 5.1 15 0 15 C0 10.05 0 5.1 0 0 Z " fill="#FFFFFF" transform="translate(270,0)"/>
<path d="M0 0 C4.95 0 9.9 0 15 0 C15 4.95 15 9.9 15 15 C10.05 15 5.1 15 0 15 C0 10.05 0 5.1 0 0 Z " fill="#EFEFEF" transform="translate(255,0)"/>
<path d="M0 0 C4.95 0 9.9 0 15 0 C15 4.95 15 9.9 15 15 C10.05 15 5.1 15 0 15 C0 10.05 0 5.1 0 0 Z " fill="#FFFFFF" transform="translate(240,0)"/>
<path d="M0 0 C4.95 0 9.9 0 15 0 C15 4.95 15 9.9 15 15 C10.05 15 5.1 15 0 15 C0 10.05 0 5.1 0 0 Z " fill="#EFEFEF" transform="translate(225,0)"/>
<path d="M0 0 C4.95 0 9.9 0 15 0 C15 4.95 15 9.9 15 15 C10.05 15 5.1 15 0 15 C0 10.05 0 5.1 0 0 Z " fill="#FFFFFF" transform="translate(210,0)"/>
<path d="M0 0 C4.95 0 9.9 0 15 0 C15 4.95 15 9.9 15 15 C10.05 15 5.1 15 0 15 C0 10.05 0 5.1 0 0 Z " fill="#EFEFEF" transform="translate(195,0)"/>
<path d="M0 0 C4.95 0 9.9 0 15 0 C15 4.95 15 9.9 15 15 C10.05 15 5.1 15 0 15 C0 10.05 0 5.1 0 0 Z " fill="#FFFFFF" transform="translate(180,0)"/>
<path d="M0 0 C4.95 0 9.9 0 15 0 C15 4.95 15 9.9 15 15 C10.05 15 5.1 15 0 15 C0 10.05 0 5.1 0 0 Z " fill="#EFEFEF" transform="translate(165,0)"/>
<path d="M0 0 C4.95 0 9.9 0 15 0 C15 4.95 15 9.9 15 15 C10.05 15 5.1 15 0 15 C0 10.05 0 5.1 0 0 Z " fill="#FFFFFF" transform="translate(150,0)"/>
<path d="M0 0 C4.95 0 9.9 0 15 0 C15 4.95 15 9.9 15 15 C10.05 15 5.1 15 0 15 C0 10.05 0 5.1 0 0 Z " fill="#EFEFEF" transform="translate(135,0)"/>
<path d="M0 0 C4.95 0 9.9 0 15 0 C15 4.95 15 9.9 15 15 C10.05 15 5.1 15 0 15 C0 10.05 0 5.1 0 0 Z " fill="#FFFFFF" transform="translate(120,0)"/>
<path d="M0 0 C4.95 0 9.9 0 15 0 C15 4.95 15 9.9 15 15 C10.05 15 5.1 15 0 15 C0 10.05 0 5.1 0 0 Z " fill="#EFEFEF" transform="translate(105,0)"/>
<path d="M0 0 C4.95 0 9.9 0 15 0 C15 4.95 15 9.9 15 15 C10.05 15 5.1 15 0 15 C0 10.05 0 5.1 0 0 Z " fill="#FFFFFF" transform="translate(90,0)"/>
<path d="M0 0 C4.95 0 9.9 0 15 0 C15 4.95 15 9.9 15 15 C10.05 15 5.1 15 0 15 C0 10.05 0 5.1 0 0 Z " fill="#EFEFEF" transform="translate(75,0)"/>
<path d="M0 0 C4.95 0 9.9 0 15 0 C15 4.95 15 9.9 15 15 C10.05 15 5.1 15 0 15 C0 10.05 0 5.1 0 0 Z " fill="#FFFFFF" transform="translate(60,0)"/>
<path d="M0 0 C4.95 0 9.9 0 15 0 C15 4.95 15 9.9 15 15 C10.05 15 5.1 15 0 15 C0 10.05 0 5.1 0 0 Z " fill="#EFEFEF" transform="translate(45,0)"/>
<path d="M0 0 C4.95 0 9.9 0 15 0 C15 4.95 15 9.9 15 15 C10.05 15 5.1 15 0 15 C0 10.05 0 5.1 0 0 Z " fill="#FFFFFF" transform="translate(30,0)"/>
<path d="M0 0 C4.95 0 9.9 0 15 0 C15 4.95 15 9.9 15 15 C10.05 15 5.1 15 0 15 C0 10.05 0 5.1 0 0 Z " fill="#FFFFFF" transform="translate(0,0)"/>
<path d="M0 0 C8.91 0 17.82 0 27 0 C27 2.31 27 4.62 27 7 C28.98 7 30.96 7 33 7 C33 7.33 33 7.66 33 8 C22.11 8 11.22 8 0 8 C0 5.36 0 2.72 0 0 Z " fill="#FED846" transform="translate(233,206)"/>
<path d="M0 0 C4.95 0 9.9 0 15 0 C15.33 4.95 15.66 9.9 16 15 C10.21101581 15.20674944 5.57067277 14.59162079 0 13 C0 8.71 0 4.42 0 0 Z " fill="#FDFDFE" transform="translate(75,255)"/>
<path d="M0 0 C4.95 0 9.9 0 15 0 C15 4.29 15 8.58 15 13 C13.68 12.67 12.36 12.34 11 12 C11 12.99 11 13.98 11 15 C7.37 15 3.74 15 0 15 C0 10.05 0 5.1 0 0 Z " fill="#EDEEEF" transform="translate(60,255)"/>
<path d="M0 0 C3.63 0 7.26 0 11 0 C11 4.95 11 9.9 11 15 C6.05 15 1.1 15 -4 15 C-4 10.71 -4 6.42 -4 2 C-2.68 2.33 -1.36 2.66 0 3 C0 2.01 0 1.02 0 0 Z " fill="#EDEEEF" transform="translate(289,90)"/>
<path d="M0 0 C7.26 0 14.52 0 22 0 C22 4.62 22 9.24 22 14 C13.97895472 13.19789547 8.87967333 10.48769511 3 5 C2.01 3.35 1.02 1.7 0 0 Z " fill="#FEDA45" transform="translate(238,228)"/>
<path d="M0 0 C1.918125 0.144375 3.83625 0.28875 5.8125 0.4375 C7.43091797 0.55931641 7.43091797 0.55931641 9.08203125 0.68359375 C12 1 12 1 15 2 C15 6.29 15 10.58 15 15 C10.05 15 5.1 15 0 15 C0 10.05 0 5.1 0 0 Z " fill="#FEFEFE" transform="translate(270,90)"/>
<path d="M0 0 C3.63 0 7.26 0 11 0 C11.66 1.98 12.32 3.96 13 6 C13.99 6 14.98 6 16 6 C15.67 8.97 15.34 11.94 15 15 C10.05 15 5.1 15 0 15 C0 10.05 0 5.1 0 0 Z " fill="#FCFDFE" transform="translate(75,315)"/>
<path d="M0 0 C3.63 0 7.26 0 11 0 C13.45489316 5.12325529 14.50341703 9.33895411 15 15 C10.05 15 5.1 15 0 15 C0 10.05 0 5.1 0 0 Z " fill="#FCFDFE" transform="translate(60,270)"/>
<path d="M0 0 C4.95 0 9.9 0 15 0 C15 4.95 15 9.9 15 15 C11.37 15 7.74 15 4 15 C3.34 13.02 2.68 11.04 2 9 C1.34 9 0.68 9 0 9 C0 6.03 0 3.06 0 0 Z " fill="#FCFDFE" transform="translate(270,30)"/>
<path d="M0 0 C4.95 0 9.9 0 15 0 C15 4.95 15 9.9 15 15 C11.37 15 7.74 15 4 15 C0 5.625 0 5.625 0 0 Z " fill="#FDFEFE" transform="translate(285,75)"/>
<path d="M0 0 C4.62 0 9.24 0 14 0 C14 9.24 14 18.48 14 28 C12.46292955 25.69439432 11.327433 23.68994481 10.1953125 21.19921875 C9.85886719 20.46896484 9.52242187 19.73871094 9.17578125 18.98632812 C8.48104082 17.46642201 7.78829712 15.94560145 7.09765625 14.42382812 C5.50477067 10.9745949 3.90169668 7.71474655 1.7421875 4.58203125 C0 2 0 2 0 0 Z " fill="#FEFDFB" transform="translate(181,90)"/>
<path d="M0 0 C5.93146313 1.97715438 7.95102735 2.66181501 12 7 C12.69510047 10.96207269 12.65730491 12.95926722 10.5 16.375 C8 18 8 18 0 19 C0 12.73 0 6.46 0 0 Z " fill="#FE9C19" transform="translate(105,164)"/>
<path d="M0 0 C0.33 0 0.66 0 1 0 C1 11.88 1 23.76 1 36 C-2.63 36 -6.26 36 -10 36 C-9.40251953 34.49373047 -9.40251953 34.49373047 -8.79296875 32.95703125 C-4.59811253 22.19953202 -1.33942141 11.5190241 0 0 Z " fill="#F0EDE7" transform="translate(359,219)"/>
<path d="M0 0 C0.33 0 0.66 0 1 0 C1.08636719 0.825 1.17273438 1.65 1.26171875 2.5 C2.48747565 12.57594664 4.51133508 23.14053045 9.15625 32.2734375 C10 34 10 34 10 37 C6.7 37 3.4 37 0 37 C0 24.79 0 12.58 0 0 Z " fill="#FEFDFB" transform="translate(0,158)"/>
<path d="M0 0 C4.95 0 9.9 0 15 0 C15 4.29 15 8.58 15 13 C3.75 10.05357143 3.75 10.05357143 0 8 C0 5.36 0 2.72 0 0 Z " fill="#FEFDFB" transform="translate(285,105)"/>
<path d="M0 0 C0 4.29 0 8.58 0 13 C-4.95 13 -9.9 13 -15 13 C-15 10.36 -15 7.72 -15 5 C-12.8765984 4.16260219 -10.7512272 3.33019717 -8.625 2.5 C-7.44164062 2.0359375 -6.25828125 1.571875 -5.0390625 1.09375 C-2 0 -2 0 0 0 Z " fill="#EFEEEC" transform="translate(300,302)"/>
<path d="M0 0 C0 6.27 0 12.54 0 19 C-6 18 -6 18 -8.3125 16.375 C-10.63103043 13.1118831 -11.06900411 11.00223835 -11 7 C-8.75539746 3.43504302 -7.31508259 1.41843537 -3.25 0.125 C-1 0 -1 0 0 0 Z " fill="#FEDA48" transform="translate(97,114)"/>
<path d="M0 0 C4.95 0 9.9 0 15 0 C15 2.64 15 5.28 15 8 C13.43979133 8.65134925 11.87671421 9.29582964 10.3125 9.9375 C9.44238281 10.29714844 8.57226562 10.65679687 7.67578125 11.02734375 C5 12 5 12 0 13 C0 8.71 0 4.42 0 0 Z " fill="#EFEEEE" transform="translate(60,45)"/>
<path d="M0 0 C3.3 0 6.6 0 10 0 C10 12.21 10 24.42 10 37 C9.67 37 9.34 37 9 37 C8.90203125 36.15179688 8.8040625 35.30359375 8.703125 34.4296875 C7.45497893 24.63819676 5.86936667 14.66992358 1.37109375 5.78125 C0 3 0 3 0 0 Z " fill="#FEFDFA" transform="translate(350,165)"/>
<path d="M0 0 C4.14667871 1.38222624 7.55940815 2.66564202 11.375 4.625 C12.24898437 5.07101562 13.12296875 5.51703125 14.0234375 5.9765625 C14.67570312 6.31429688 15.32796875 6.65203125 16 7 C16 9.31 16 11.62 16 14 C11.05 14 6.1 14 1 14 C0.67 9.38 0.34 4.76 0 0 Z " fill="#FEFEFE" transform="translate(104,316)"/>
<path d="M0 0 C4.95 0 9.9 0 15 0 C15 4.62 15 9.24 15 14 C12.265625 12.73046875 9.53125 11.4609375 6.796875 10.19140625 C4.50748305 9.21617644 2.42621254 8.5025726 0 8 C0 5.36 0 2.72 0 0 Z " fill="#FEFEFE" transform="translate(240,30)"/>
<path d="M0 0 C4.95 1.65 9.9 3.3 15 5 C15 7.64 15 10.28 15 13 C10.05 13 5.1 13 0 13 C0 8.71 0 4.42 0 0 Z " fill="#FEFEFE" transform="translate(60,242)"/>
<path d="M0 0 C4.95 0.33 9.9 0.66 15 1 C15 4.3 15 7.6 15 11 C10.05 11 5.1 11 0 11 C0 7.37 0 3.74 0 0 Z " fill="#EDEEEF" transform="translate(165,334)"/>
<path d="M0 0 C3.3 0 6.6 0 10 0 C9.33613126 4.02050843 8.08563932 7.53854947 6.5625 11.3125 C3.48463882 19.19785615 1.74179596 26.56695116 1 35 C0.67 35 0.34 35 0 35 C0 23.45 0 11.9 0 0 Z " fill="#EFEEEC" transform="translate(0,105)"/>
<path d="M0 0 C4.95 0 9.9 0 15 0 C15 3.63 15 7.26 15 11 C10.05 10.67 5.1 10.34 0 10 C0 6.7 0 3.4 0 0 Z " fill="#EFEFEF" transform="translate(180,15)"/>
<path d="M0 0 C0 3.63 0 7.26 0 11 C-4.95 11 -9.9 11 -15 11 C-15 8.69 -15 6.38 -15 4 C-3 0 -3 0 0 0 Z " fill="#FEFDF9" transform="translate(135,244)"/>
<path d="M0 0 C4.95 0 9.9 0 15 0 C15 3.63 15 7.26 15 11 C9.87399439 9.91266548 4.94081272 8.77362508 0 7 C0 4.69 0 2.38 0 0 Z " fill="#EFEEEB" transform="translate(120,45)"/>
<path d="M0 0 C2.12570312 0.47603774 4.25054427 0.95592598 6.375 1.4375 C8.15003906 1.83775391 8.15003906 1.83775391 9.9609375 2.24609375 C13 3 13 3 15 4 C15 6.31 15 8.62 15 11 C10.05 11 5.1 11 0 11 C0 7.37 0 3.74 0 0 Z " fill="#EFEEED" transform="translate(225,304)"/>
<path d="M0 0 C4.95 0 9.9 0 15 0 C15 2.31 15 4.62 15 7 C12.87607494 7.6700834 10.75082476 8.33596797 8.625 9 C7.44164062 9.37125 6.25828125 9.7425 5.0390625 10.125 C2 11 2 11 0 11 C0 7.37 0 3.74 0 0 Z " fill="#FEFEFE" transform="translate(225,105)"/>
<path d="M0 0 C1.17046875 0.03609375 2.3409375 0.0721875 3.546875 0.109375 C4.43890625 0.15578125 5.3309375 0.2021875 6.25 0.25 C6.25 3.88 6.25 7.51 6.25 11.25 C-0.18082787 9.96383443 -5.15420264 7.64374748 -10.75 4.25 C-7.43152371 0.07726249 -5.22729025 -0.20909161 0 0 Z " fill="#EDEEEF" transform="translate(128.75,284.75)"/>
<path d="M0 0 C6.01618347 1.88005734 11.42532955 4.06062831 17 7 C15.421875 9.51171875 15.421875 9.51171875 13 12 C9.765625 12.26953125 9.765625 12.26953125 6.25 11.8125 C5.07953125 11.67457031 3.9090625 11.53664063 2.703125 11.39453125 C1.81109375 11.26433594 0.9190625 11.13414063 0 11 C0 7.37 0 3.74 0 0 Z " fill="#EFEFEF" transform="translate(225,64)"/>
<path d="M0 0 C4.29 0 8.58 0 13 0 C13 4.62 13 9.24 13 14 C8.07379425 10.15515649 3.87837425 5.91107745 0 1 C0 0.67 0 0.34 0 0 Z " fill="#FEFDFA" transform="translate(167,75)"/>
<path d="M0 0 C4.95 0 9.9 0 15 0 C15 1.65 15 3.3 15 5 C12.87562952 5.50266794 10.75048274 6.0020561 8.625 6.5 C7.44164063 6.7784375 6.25828125 7.056875 5.0390625 7.34375 C2 8 2 8 0 8 C0 5.36 0 2.72 0 0 Z " fill="#FEFEFE" transform="translate(75,45)"/>
<path d="M0 0 C1.11914081 1.11914081 2.23793937 2.23862507 3.35546875 3.359375 C4.60306033 4.60400318 5.85676269 5.84250971 7.11328125 7.078125 C7.83902344 7.79484375 8.56476563 8.5115625 9.3125 9.25 C10.00988281 9.93578125 10.70726562 10.6215625 11.42578125 11.328125 C13 13 13 13 13 14 C8.71 14 4.42 14 0 14 C0 9.38 0 4.76 0 0 Z " fill="#FEFEFE" transform="translate(180,271)"/>
<path d="M0 0 C7.425 0.99 7.425 0.99 15 2 C15 3.65 15 5.3 15 7 C10.05 7 5.1 7 0 7 C0 4.69 0 2.38 0 0 Z " fill="#FEFEFE" transform="translate(240,308)"/>
<path d="M0 0 C-0.99 0 -1.98 0 -3 0 C-3 1.65 -3 3.3 -3 5 C-7.95 5 -12.9 5 -18 5 C-18 3.35 -18 1.7 -18 0 C-15.75067773 -0.1954625 -13.50049858 -0.38108226 -11.25 -0.5625 C-9.99703125 -0.66691406 -8.7440625 -0.77132813 -7.453125 -0.87890625 C-4.60547636 -0.97876723 -2.65713933 -0.90584295 0 0 Z " fill="#F0EEEB" transform="translate(273,310)"/>
<path d="M0 0 C4.95 0 9.9 0 15 0 C15 1.65 15 3.3 15 5 C14.67 5.33 14.34 5.66 14 6 C12.43385158 5.93511249 10.87048984 5.7973337 9.3125 5.625 C8.41402344 5.52574219 7.51554687 5.42648437 6.58984375 5.32421875 C3.71024309 4.96372576 0.8541107 4.52575724 -2 4 C-1.34 2.68 -0.68 1.36 0 0 Z " fill="#E7EBEF" transform="translate(105,270)"/>
<path d="M0 0 C5.02913736 0.20489078 10.09817576 0.85624101 15 2 C14.67 3.32 14.34 4.64 14 6 C9.05 6 4.1 6 -1 6 C-1 1 -1 1 0 0 Z " fill="#E7EBEF" transform="translate(241,84)"/>
<path d="M0 0 C4.95 0 9.9 0 15 0 C15 1.65 15 3.3 15 5 C10.05 5 5.1 5 0 5 C0 3.35 0 1.7 0 0 Z " fill="#FEFEFE" transform="translate(90,250)"/>
<path d="M0 0 C4.95 0 9.9 0 15 0 C15 1.65 15 3.3 15 5 C10.05 5 5.1 5 0 5 C0 3.35 0 1.7 0 0 Z " fill="#FEFEFE" transform="translate(255,105)"/>
<path d="M0 0 C4.95 0 9.9 0 15 0 C15 1.65 15 3.3 15 5 C10.05 5 5.1 5 0 5 C0 3.35 0 1.7 0 0 Z " fill="#EFEFEF" transform="translate(90,45)"/>
<path d="M0 0 C4.95 0 9.9 0 15 0 C15 1.65 15 3.3 15 5 C9.87416389 5.10251672 5.05002222 5.03590199 0 4 C0 2.68 0 1.36 0 0 Z " fill="#EFEFEF" transform="translate(165,300)"/>
<path d="M0 0 C5.15171623 -0.09038099 9.91913204 0.15318867 15 1 C15 2.32 15 3.64 15 5 C10.05 5 5.1 5 0 5 C0 3.35 0 1.7 0 0 Z " fill="#EEEFEF" transform="translate(180,55)"/>
<path d="M0 0 C2.475 0.495 2.475 0.495 5 1 C5 5.95 5 10.9 5 16 C3 15 3 15 2.1484375 12.890625 C1.89320313 12.01921875 1.63796875 11.1478125 1.375 10.25 C0.98441406 8.95835938 0.98441406 8.95835938 0.5859375 7.640625 C0.00060132 5.00270994 -0.10651736 2.69198424 0 0 Z " fill="#F1F7FB" transform="translate(280,59)"/>
<path d="M0 0 C0.33 0 0.66 0 1 0 C1 6.93 1 13.86 1 21 C-0.32 21 -1.64 21 -3 21 C-2.17321655 13.97234063 -1.09751783 6.99001647 0 0 Z " fill="#FDF7E8" transform="translate(359,219)"/>
<path d="M0 0 C0.33 0 0.66 0 1 0 C2.05987432 7.32650983 3.11796547 14.64971227 4 22 C2.68 22 1.36 22 0 22 C0 14.74 0 7.48 0 0 Z " fill="#F2EFE7" transform="translate(0,158)"/>
<path d="M0 0 C1.32 0 2.64 0 4 0 C4 7.26 4 14.52 4 22 C3.67 22 3.34 22 3 22 C1.94012568 14.67349017 0.88203453 7.35028773 0 0 Z " fill="#F1EEE6" transform="translate(356,180)"/>
<path d="M0 0 C0.99 0 1.98 0 3 0 C4.19287411 3.87684087 5 6.91621923 5 11 C3.35 11 1.7 11 0 11 C0 7.37 0 3.74 0 0 Z " fill="#F4F8FB" transform="translate(75,289)"/>
<path d="M0 0 C0.66 0.33 1.32 0.66 2 1 C1.34 1.66 0.68 2.32 0 3 C-0.33 4.65 -0.66 6.3 -1 8 C-4.63 8 -8.26 8 -12 8 C-9.31296014 5.9847201 -6.68677189 4.06749514 -3.875 2.25 C-3.19179688 1.80140625 -2.50859375 1.3528125 -1.8046875 0.890625 C-0.91136719 0.44976562 -0.91136719 0.44976562 0 0 Z " fill="#F3EEE3" transform="translate(316,292)"/>
<path d="M0 0 C1.32 0 2.64 0 4 0 C3.86722656 0.68964844 3.73445312 1.37929687 3.59765625 2.08984375 C2.47696987 8.05320412 1.59395227 13.96148529 1 20 C0.67 20 0.34 20 0 20 C0 13.4 0 6.8 0 0 Z " fill="#FDFCFA" transform="translate(0,120)"/>
<path d="M0 0 C1.98 0 3.96 0 6 0 C6 4.29 6 8.58 6 13 C4.1727089 10.25906335 3.06301822 7.86174676 1.875 4.8125 C1.52179688 3.91144531 1.16859375 3.01039062 0.8046875 2.08203125 C0.53914062 1.39496094 0.27359375 0.70789063 0 0 Z " fill="#F1ECE1" transform="translate(189,105)"/>
<path d="M0 0 C3.3 0 6.6 0 10 0 C10 1.98 10 3.96 10 6 C6.40992874 4.66654496 3.20429093 3.1056769 0 1 C0 0.67 0 0.34 0 0 Z " fill="#FEFAF1" transform="translate(305,120)"/>
<path d="M0 0 C3.63 0 7.26 0 11 0 C3 6 3 6 0 6 C0 4.02 0 2.04 0 0 Z " fill="#F0EEE8" transform="translate(45,60)"/>
<path d="M0 0 C3.59007126 1.33345504 6.79570907 2.8943231 10 5 C10 5.33 10 5.66 10 6 C6.7 6 3.4 6 0 6 C0 4.02 0 2.04 0 0 Z " fill="#FEFCF8" transform="translate(45,234)"/>
<path d="M0 0 C0.66 0 1.32 0 2 0 C2.99 2.97 3.98 5.94 5 9 C3.35 9 1.7 9 0 9 C0 6.03 0 3.06 0 0 Z " fill="#EFEEEB" transform="translate(165,246)"/>
<path d="M0 0 C2.1464753 0.11344376 4.29220592 0.24106345 6.4375 0.375 C8.22994141 0.47941406 8.22994141 0.47941406 10.05859375 0.5859375 C11.02925781 0.72257812 11.99992187 0.85921875 13 1 C13.33 1.66 13.66 2.32 14 3 C9.71 3 5.42 3 1 3 C0.67 2.01 0.34 1.02 0 0 Z " fill="#F0F6FA" transform="translate(254,87)"/>
<path d="M0 0 C2.64 0 5.28 0 8 0 C8.33 0.99 8.66 1.98 9 3 C2.25 3.125 2.25 3.125 0 2 C0 1.34 0 0.68 0 0 Z " fill="#F7FAFC" transform="translate(97,270)"/>
<path d="M0 0 C0.33 0 0.66 0 1 0 C1 2.31 1 4.62 1 7 C-0.98 7.66 -2.96 8.32 -5 9 C-3.50164236 5.88802644 -1.86022073 2.91164984 0 0 Z " fill="#F4EEDE" transform="translate(344,263)"/>
<path d="M0 0 C0.66 0.33 1.32 0.66 2 1 C0.68 2.32 -0.64 3.64 -2 5 C-0.68 5.99 0.64 6.98 2 8 C-0.875 8.125 -0.875 8.125 -4 8 C-4.66 7.34 -5.32 6.68 -6 6 C-4.02 4.02 -2.04 2.04 0 0 Z " fill="#5084AB" transform="translate(239,75)"/>
<path d="M0 0 C1.65 0 3.3 0 5 0 C3.68 2.31 2.36 4.62 1 7 C0.67 7 0.34 7 0 7 C0 4.69 0 2.38 0 0 Z " fill="#F1EEE6" transform="translate(15,90)"/>
<path d="M0 0 C1.37562854 1.28965176 2.70766393 2.62689293 4 4 C4 4.66 4 5.32 4 6 C2.68 6 1.36 6 0 6 C0 4.02 0 2.04 0 0 Z " fill="#FDFCFA" transform="translate(15,204)"/>
<path d="M0 0 C1.32 0 2.64 0 4 0 C4 1.98 4 3.96 4 6 C2.62437146 4.71034824 1.29233607 3.37310707 0 2 C0 1.34 0 0.68 0 0 Z " fill="#FEFBF3" transform="translate(341,150)"/>
</svg>
