<?xml version="1.0" standalone="no"?>
<!DOCTYPE svg PUBLIC "-//W3C//DTD SVG 20010904//EN"
 "http://www.w3.org/TR/2001/REC-SVG-20010904/DTD/svg10.dtd">
<svg version="1.0" xmlns="http://www.w3.org/2000/svg"
 width="770.000000pt" height="620.000000pt" viewBox="0 0 770.000000 620.000000"
 preserveAspectRatio="xMidYMid meet">

<g transform="translate(0.000000,620.000000) scale(0.100000,-0.100000)"
fill="#000000" stroke="none">
<path d="M0 3100 l0 -3100 3850 0 3850 0 0 3100 0 3100 -3850 0 -3850 0 0
-3100z m3458 1834 c358 -320 336 -298 326 -317 -19 -31 -619 -557 -634 -555
-12 3 -15 27 -18 146 l-3 142 -181 0 c-161 0 -186 2 -223 20 -69 34 -75 53
-75 257 0 270 4 273 295 273 l185 0 0 138 c0 76 3 142 7 145 3 4 12 7 20 7 7
0 143 -115 301 -256z m1153 238 c180 -50 331 -193 392 -371 11 -31 22 -96 24
-146 10 -169 -52 -320 -179 -440 -172 -163 -417 -199 -635 -93 -92 44 -206
158 -251 251 -88 180 -77 393 27 556 42 65 142 158 210 194 121 66 282 85 412
49z m-1276 -1247 c109 -23 188 -67 275 -154 123 -122 178 -267 166 -435 -30
-412 -477 -656 -834 -455 -137 77 -234 202 -273 354 -48 181 2 379 129 517
143 155 333 216 537 173z m1213 -133 l3 -142 179 0 c293 0 300 -6 300 -276 0
-271 -4 -274 -294 -274 l-185 0 -3 -142 c-3 -124 -5 -143 -20 -146 -14 -3 -60
36 -273 227 -22 20 -101 90 -175 156 -178 157 -192 173 -183 189 18 30 619
556 633 554 12 -3 15 -28 18 -146z m1794 -2029 c28 -25 24 -77 -9 -103 -44
-34 -113 -2 -113 53 0 54 81 87 122 50z m-1762 -22 c5 -11 10 -65 10 -120 0
-56 1 -101 3 -101 2 0 25 7 51 16 64 22 169 15 222 -15 86 -48 104 -111 104
-366 0 -188 1 -185 -58 -185 -56 0 -57 3 -62 219 -5 193 -6 200 -29 225 -46
49 -131 57 -202 20 l-29 -15 0 -218 c0 -190 -2 -220 -16 -225 -29 -11 -67 -6
-86 11 -17 15 -18 40 -18 388 0 204 3 375 7 378 3 4 26 7 49 7 33 0 46 -5 54
-19z m-440 -37 c73 -17 119 -48 158 -106 23 -35 26 -51 27 -117 0 -165 -88
-239 -297 -249 l-107 -5 -3 -126 -3 -126 -35 -3 c-19 -2 -43 3 -53 11 -17 12
-19 34 -18 352 0 216 4 342 11 349 13 13 131 34 200 35 30 0 84 -6 120 -15z
m-2720 -4 c12 -7 16 -40 18 -160 l4 -150 166 2 167 3 3 158 3 157 44 0 c78 0
75 14 75 -380 0 -382 4 -360 -60 -360 -55 0 -60 16 -60 181 l0 149 -170 0
-170 0 0 -153 c0 -167 -3 -177 -55 -177 -62 0 -63 3 -66 245 -2 121 -2 282 -1
358 l2 137 43 0 c23 0 49 -5 57 -10z m1000 -163 c89 -22 160 -123 160 -226 0
-30 -22 -61 -43 -61 -7 0 -41 -5 -77 -10 -36 -6 -112 -17 -169 -25 -57 -8
-106 -17 -109 -20 -16 -15 67 -124 96 -125 4 -1 26 -5 50 -9 47 -9 119 1 165
24 39 20 44 19 58 -6 17 -32 -3 -64 -53 -90 -63 -32 -202 -32 -275 0 -112 49
-168 150 -162 290 7 145 81 240 206 267 59 12 75 11 153 -9z m1069 1 c54 -14
115 -71 124 -118 4 -18 7 -110 7 -205 0 -165 -1 -172 -22 -192 -63 -56 -242
-78 -340 -40 -98 38 -140 130 -100 221 33 73 94 99 267 114 l80 7 3 32 c2 23
-4 40 -26 64 -26 29 -36 33 -93 37 -48 3 -79 -1 -124 -17 -56 -20 -61 -20 -72
-4 -32 43 2 87 81 102 102 20 131 20 215 -1z m1977 0 c101 -25 184 -156 160
-252 -8 -33 11 -28 -285 -71 -57 -8 -106 -17 -109 -19 -8 -9 11 -48 39 -81 53
-60 164 -76 254 -36 60 27 63 26 75 -5 24 -63 -51 -107 -185 -108 -103 0 -165
22 -223 77 -63 60 -77 99 -77 217 0 99 2 108 31 160 38 68 95 110 171 126 59
12 75 11 149 -8z m-2433 3 c28 -11 39 -34 32 -64 -5 -20 -12 -22 -83 -22 -49
-1 -91 -7 -114 -17 l-38 -17 0 -219 c0 -191 -2 -221 -16 -226 -30 -12 -64 -6
-84 14 -19 19 -20 33 -20 233 0 234 3 248 59 281 69 40 205 59 264 37z m3050
0 c28 -11 39 -34 32 -64 -5 -20 -12 -22 -83 -22 -49 -1 -91 -7 -114 -17 l-38
-17 0 -219 c0 -191 -2 -221 -16 -226 -30 -12 -64 -6 -84 14 -19 19 -20 33 -20
233 0 234 3 248 59 281 69 40 205 59 264 37z m255 -13 c9 -9 12 -85 12 -279
l0 -267 -25 -6 c-34 -9 -74 3 -85 24 -11 21 -14 523 -3 533 11 12 88 8 101 -5z"/>
<path d="M3180 4976 c0 -104 -3 -125 -16 -130 -9 -3 -107 -6 -219 -6 l-204 0
-20 -26 c-19 -24 -21 -40 -21 -181 0 -118 4 -161 15 -183 9 -17 17 -31 18 -32
1 -1 101 -4 222 -8 l220 -5 3 -122 c1 -68 6 -123 11 -123 5 0 126 105 270 233
l262 232 -34 30 c-33 30 -63 57 -345 309 -84 75 -155 136 -158 136 -2 0 -4
-56 -4 -124z"/>
<path d="M4352 5124 c-123 -27 -239 -107 -311 -215 -154 -230 -90 -552 139
-704 95 -63 175 -87 285 -87 253 1 450 165 502 419 15 70 16 92 5 160 -35 214
-194 384 -401 428 -86 18 -134 18 -219 -1z m-17 -300 c44 -52 92 -107 106
-124 l25 -30 108 125 c68 80 114 125 127 125 37 0 18 -37 -75 -146 -80 -94
-91 -109 -72 -112 58 -7 67 -13 64 -35 -3 -20 -10 -22 -65 -25 l-63 -3 0 -64
0 -65 59 0 c67 0 93 -17 66 -44 -11 -11 -34 -16 -70 -16 l-54 0 -3 -62 c-3
-55 -5 -63 -23 -63 -18 0 -20 8 -23 63 l-3 62 -52 0 c-60 0 -80 10 -75 36 3
16 14 20 66 22 l62 3 0 64 0 64 -62 3 c-56 3 -63 5 -66 25 -3 22 7 28 65 35
20 3 12 16 -72 113 -97 112 -114 145 -72 144 15 0 46 -28 102 -95z"/>
<path d="M3165 3884 c-203 -27 -366 -155 -431 -343 -65 -187 -19 -389 121
-527 232 -229 604 -192 784 77 83 124 107 298 62 439 -48 149 -182 283 -327
327 -72 22 -158 33 -209 27z m150 -175 c54 -15 109 -74 124 -134 13 -52 6 -69
-25 -63 -13 2 -21 15 -25 43 -9 57 -64 105 -121 105 -48 0 -100 -27 -120 -62
-7 -13 -15 -56 -18 -96 l-5 -72 71 0 c79 0 108 -16 84 -45 -9 -11 -33 -15 -86
-15 l-73 0 -11 -57 c-6 -32 -20 -86 -30 -121 -11 -34 -20 -67 -20 -72 0 -6 66
-10 170 -10 l170 0 0 -25 0 -25 -205 0 c-171 0 -207 2 -211 15 -3 8 6 38 20
67 24 48 55 168 56 210 0 12 -10 18 -37 20 -33 3 -38 6 -38 28 0 22 5 25 42
28 l42 3 6 67 c8 89 11 101 35 140 13 21 40 42 73 57 59 28 75 30 132 14z"/>
<path d="M4470 3828 c-14 -13 -86 -77 -160 -143 -74 -66 -146 -130 -160 -143
-14 -13 -62 -55 -107 -95 -78 -68 -82 -73 -65 -88 9 -9 130 -117 267 -239
l250 -222 3 123 c2 83 7 126 15 131 7 4 105 8 219 8 l207 0 20 26 c19 25 21
40 21 189 0 226 21 209 -257 215 l-218 5 -5 128 -5 127 -25 -22z"/>
<path d="M3938 1614 c-16 -5 -18 -21 -18 -145 l0 -139 88 0 c97 1 142 17 175
61 28 38 32 106 10 148 -31 59 -62 74 -155 77 -46 2 -91 1 -100 -2z"/>
<path d="M2235 1429 c-36 -32 -65 -85 -65 -120 0 -24 12 -24 173 -2 137 19
137 19 113 77 -22 54 -60 76 -127 76 -51 0 -63 -4 -94 -31z"/>
<path d="M3366 1226 c-77 -14 -106 -38 -106 -88 0 -67 92 -104 193 -77 l52 14
3 83 3 82 -38 -1 c-21 0 -69 -6 -107 -13z"/>
<path d="M5293 1439 c-33 -21 -73 -90 -73 -127 0 -19 5 -22 38 -21 20 0 87 8
147 18 l110 17 -2 29 c-3 35 -31 75 -64 92 -38 20 -119 16 -156 -8z"/>
</g>
</svg>
